<?xml version="1.0" encoding="UTF-8"?>
<svg id="Layer_1" xmlns="http://www.w3.org/2000/svg" version="1.1" viewBox="0 0 354.22 308.91">
  <!-- Generator: Adobe Illustrator 30.1.0, SVG Export Plug-In . SVG Version: 2.1.1 Build 136)  -->
  <defs>
    <style>
      .st0 {
        fill: #eb0028;
      }
    </style>
  </defs>
  <path class="st0" d="M180.33,99c.67,4.43,2.09,8.75,3.28,13.09.33,1.19,1.08,2.19,2.65,1.78,1.47-.38,1.79-1.44,1.71-2.77-.08-1.2-.16-2.4-.25-3.6-.71-9.37,1.97-17.64,8.65-24.27,2.85-2.83,6.35-5.05,9.71-7.32,4.24-2.87,8.82-5.24,12.93-8.28,15.34-11.33,16.97-31.04,4.46-48.17-1.03-1.41-2.34-1.9-4,.14.35.79.62,1.48.94,2.15,6.6,13.45,4.11,24.33-7.84,33.4-3.35,2.54-7.16,4.49-10.47,7.08-4.38,3.41-8.86,6.82-12.62,10.86-6.7,7.21-10.69,15.75-9.16,25.91Z"/>
  <path class="st0" d="M165.85,68.62c.25-.89.25-2.25-.27-2.84-.54-.6-1.92-.85-2.8-.65-1.11.26-2.16,1.02-3.11,1.74-5.13,3.89-8.26,9.07-9.76,15.3-2.71,12.29,3.44,21.81,9.86,31.22.29.42,1.59.7,1.91.43.57-.47,1.15-1.51,1-2.13-.41-1.74-1.12-3.43-1.85-5.07-5.52-12.42-4.89-24.24,3.35-35.36.62-.84,1.41-1.68,1.67-2.65Z"/>
  <g>
    <path class="st0" d="M287.25,197.67c-1.05-7.2-1.88-15.46-8.13-20.27-5.78-4.43-13.85-6.51-21.08-6.51-.47,0-5.72.12-6.1,0h-.02c-.38-13.46-9.22-20.62-18.88-26.92-4.04-2.61-8.29-4.85-12.65-6.73-26.11-10.71-53.08-17.38-81.38-19-14.33-.75-28.6-.2-42.69,2.99-18.88,4.12-26.11,12.39-28.4,31.59-.06.44-.06.87-.14,1.39-2.06,18.13-2.18,36.32.08,54.45,2.24,17.63,6.85,34.4,18.13,48.55,17.63,22.19,41.13,32.46,69.17,32.4,25.1-.06,46.67-8.65,63.31-28.1,2.49-2.99,4.59-6.23,7.09-9.22,1.13-1.25,2.75-2.87,4.18-2.87,17.89,0,39.58-7.32,51.06-22.19,2.28-2.95,4.16-6.21,5.52-9.78,2.36-6.12,1.86-13.4.93-19.77ZM285.33,217.07c-1.33,3.46-3.15,6.61-5.38,9.5-5.58,7.24-13.72,12.71-22.68,16.33-8.95,3.64-18.72,5.46-27.53,5.44-1.13.02-2.04.57-2.85,1.21-.81.61-1.52,1.39-2.12,2.02v.02l-.02.02c-2.55,3.05-4.67,6.27-7.09,9.2l-.02.02c-16.47,19.18-37.62,27.63-62.48,27.71h-.26c-27.67-.02-50.69-10.13-68.08-32-5.54-6.97-9.46-14.57-12.27-22.64-2.81-8.08-4.51-16.59-5.64-25.37-1.11-8.97-1.64-17.91-1.64-26.9s.55-18.21,1.58-27.29c.08-.57.08-1.01.12-1.35v-.02c.57-4.75,1.44-8.79,2.71-12.21,1.25-3.44,2.91-6.29,5.03-8.67,4.24-4.75,10.51-7.76,19.85-9.8,10.43-2.36,20.96-3.27,31.57-3.27,3.6,0,7.22.1,10.83.3,14.09.81,27.83,2.87,41.33,6.06,13.5,3.21,26.7,7.54,39.7,12.86h.02c4.29,1.84,8.47,4.06,12.47,6.63,4.79,3.13,9.32,6.45,12.67,10.57,3.34,4.12,5.54,8.97,5.72,15.46v.04c.02.34.18.59.32.71.24.24.36.24.44.28l.26.06c.2.02.38.02.63.04h.91c1.7,0,4.33-.06,4.63-.06,7.03,0,14.9,2.04,20.44,6.29,2.89,2.24,4.55,5.26,5.64,8.71,1.07,3.42,1.54,7.24,2.08,10.87.42,2.93.75,6.06.75,9.12,0,3.54-.44,7.01-1.62,10.11ZM237.59,157.67v-.02h-.02c-1.5-1.39-3.07-2.77-4.75-4h-.02c-8.09-6.08-16.72-11.46-26.54-14.49-11.86-3.68-23.91-7.18-36.1-9.94-12.81-2.89-25.67-4.31-38.55-4.31-10.96,0-21.97,1.05-32.93,3.13-4.89.95-9.86,2.99-14.01,5.68l-.02.02c-1.52,1.01-2.71,2.06-3.52,3.21-.83,1.15-1.29,2.41-1.29,3.7s.42,2.45,1.15,3.6c.73,1.13,1.78,2.22,3.15,3.31,5.23,4.16,10.75,7.86,16.47,11.18,4.95,2.85,10.15,4.97,15.46,6.75,5.3,1.78,10.71,3.23,16.07,4.69,22.82,6.23,45.9,11.64,69.9,11.64h.04c1.41.06,2.83.08,4.24.08,8.93,0,17.71-1.21,26.32-3.94,3.54-1.11,6.23-2.39,8.15-3.96,1.88-1.56,2.97-3.52,2.97-5.72,0-1.64-.57-3.33-1.6-5.07-1.05-1.76-2.57-3.58-4.55-5.54ZM232.29,176.95c-9.84,3.11-19.93,4.24-30.22,3.8-23.85,0-46.85-5.36-69.67-11.6-10.71-2.93-21.55-5.74-31.27-11.34-5.68-3.31-11.16-6.99-16.33-11.08-5.3-4.18-5.23-8.35.44-12.09,4.06-2.61,8.91-4.61,13.66-5.54,23.67-4.49,47.48-4.12,71.03,1.17,12.15,2.75,24.17,6.23,36.02,9.92,9.66,2.99,18.19,8.29,26.22,14.33,1.62,1.19,3.19,2.55,4.67,3.94,9.04,8.91,7.6,14.71-4.55,18.51Z"/>
    <path class="st0" d="M281.1,201.95c0,7.74-2.14,15.62-6.67,22.09-.18.4-.42.69-.67.93-.02.04-.06.08-.08.12t-.04.04c-2.18,3.17-4.91,6-8.19,8.29h-.02c-.38.26-.75.49-1.13.75-3.21,2.12-6.81,3.74-11.04,4.75-6.35,1.58-12.79,2.63-19.48,4.06l-1.6.36.34-1.6c.51-2.45.93-4.31,1.46-5.78.53-1.46,1.21-2.59,2.2-3.42.67-.53,1.44-.93,2.32-1.21,1.19-.38,2.55-.61,4.26-.85,8.71-1.23,15.42-4.81,20.11-11.1,1.5-2.04,2.83-4.33,3.92-6.95.99-2.34,1.5-4.59,1.5-6.75-.02-3.29-1.15-6.37-3.64-9.34v-.02c-.51-.61-1.13-1.23-1.68-1.78-1.82-1.58-3.68-2.43-5.8-2.43-1.17,0-2.43.28-3.86.89-.02,0-.04.02-.06.02-.51.24-.99.36-1.54.49-.59.12-1.27.26-2.16.49l-1.6.44.28-1.64c.79-5.05,1.48-9.34,2.12-13.44l.1-.65.61-.22c3.54-1.15,6.83-1.72,9.88-1.72,1.01,0,1.98.06,2.95.2h.02l1.13.2c5.22.91,9.34,3.88,11.97,8.49v.02l.02.04.06.14s.04.06.06.1c1.88,2.93,3.15,6.53,3.66,10.85v.04c.22,1.68.32,3.4.32,5.13Z"/>
    <path class="st0" d="M242.15,163.21c-1.05-1.76-2.57-3.58-4.55-5.54v-.02h-.02c-1.5-1.39-3.07-2.77-4.75-4h-.02c-8.09-6.08-16.72-11.46-26.54-14.49-11.86-3.68-23.91-7.18-36.1-9.94-12.81-2.89-25.67-4.31-38.55-4.31-10.96,0-21.97,1.05-32.93,3.13-4.89.95-9.86,2.99-14.01,5.68l-.02.02c-1.52,1.01-2.71,2.06-3.52,3.21-.83,1.15-1.29,2.41-1.29,3.7s.42,2.45,1.15,3.6c.73,1.13,1.78,2.22,3.15,3.31,5.23,4.16,10.75,7.86,16.47,11.18,4.95,2.85,10.15,4.97,15.46,6.75,5.3,1.78,10.71,3.23,16.07,4.69,22.82,6.23,45.9,11.64,69.9,11.64h.04c1.41.06,2.83.08,4.24.08,8.93,0,17.71-1.21,26.32-3.94,3.54-1.11,6.23-2.39,8.15-3.96,1.88-1.56,2.97-3.52,2.97-5.72,0-1.64-.57-3.33-1.6-5.07ZM239.41,172.36c-1.56,1.29-4.04,2.51-7.44,3.56-8.37,2.65-16.94,3.84-25.67,3.84-1.39,0-2.79-.02-4.18-.08h-.06c-23.69,0-46.59-5.32-69.37-11.56-10.75-2.93-21.47-5.72-31.03-11.24-5.64-3.27-11.06-6.93-16.19-11h-.02c-1.23-.97-2.12-1.9-2.67-2.79-.57-.87-.81-1.68-.81-2.43,0-.79.26-1.58.87-2.45.63-.85,1.6-1.76,2.97-2.67h.02c3.94-2.53,8.67-4.49,13.26-5.38,10.83-2.06,21.67-3.09,32.52-3.09,12.73,0,25.43,1.43,38.08,4.26,12.11,2.73,24.11,6.21,35.94,9.9,9.48,2.93,17.91,8.15,25.91,14.15v.02c1.56,1.13,3.09,2.47,4.55,3.82,1.9,1.86,3.31,3.58,4.22,5.11.91,1.52,1.31,2.85,1.31,3.98-.02,1.48-.65,2.75-2.2,4.08ZM242.15,163.21c-1.05-1.76-2.57-3.58-4.55-5.54v-.02h-.02c-1.5-1.39-3.07-2.77-4.75-4h-.02c-8.09-6.08-16.72-11.46-26.54-14.49-11.86-3.68-23.91-7.18-36.1-9.94-12.81-2.89-25.67-4.31-38.55-4.31-10.96,0-21.97,1.05-32.93,3.13-4.89.95-9.86,2.99-14.01,5.68l-.02.02c-1.52,1.01-2.71,2.06-3.52,3.21-.83,1.15-1.29,2.41-1.29,3.7s.42,2.45,1.15,3.6c.73,1.13,1.78,2.22,3.15,3.31,5.23,4.16,10.75,7.86,16.47,11.18,4.95,2.85,10.15,4.97,15.46,6.75,5.3,1.78,10.71,3.23,16.07,4.69,22.82,6.23,45.9,11.64,69.9,11.64h.04c1.41.06,2.83.08,4.24.08,8.93,0,17.71-1.21,26.32-3.94,3.54-1.11,6.23-2.39,8.15-3.96,1.88-1.56,2.97-3.52,2.97-5.72,0-1.64-.57-3.33-1.6-5.07ZM239.41,172.36c-1.56,1.29-4.04,2.51-7.44,3.56-8.37,2.65-16.94,3.84-25.67,3.84-1.39,0-2.79-.02-4.18-.08h-.06c-23.69,0-46.59-5.32-69.37-11.56-10.75-2.93-21.47-5.72-31.03-11.24-5.64-3.27-11.06-6.93-16.19-11h-.02c-1.23-.97-2.12-1.9-2.67-2.79-.57-.87-.81-1.68-.81-2.43,0-.79.26-1.58.87-2.45.63-.85,1.6-1.76,2.97-2.67h.02c3.94-2.53,8.67-4.49,13.26-5.38,10.83-2.06,21.67-3.09,32.52-3.09,12.73,0,25.43,1.43,38.08,4.26,12.11,2.73,24.11,6.21,35.94,9.9,9.48,2.93,17.91,8.15,25.91,14.15v.02c1.56,1.13,3.09,2.47,4.55,3.82,1.9,1.86,3.31,3.58,4.22,5.11.91,1.52,1.31,2.85,1.31,3.98-.02,1.48-.65,2.75-2.2,4.08ZM242.15,163.21c-1.05-1.76-2.57-3.58-4.55-5.54v-.02h-.02c-1.5-1.39-3.07-2.77-4.75-4h-.02c-8.09-6.08-16.72-11.46-26.54-14.49-11.86-3.68-23.91-7.18-36.1-9.94-12.81-2.89-25.67-4.31-38.55-4.31-10.96,0-21.97,1.05-32.93,3.13-4.89.95-9.86,2.99-14.01,5.68l-.02.02c-1.52,1.01-2.71,2.06-3.52,3.21-.83,1.15-1.29,2.41-1.29,3.7s.42,2.45,1.15,3.6c.73,1.13,1.78,2.22,3.15,3.31,5.23,4.16,10.75,7.86,16.47,11.18,4.95,2.85,10.15,4.97,15.46,6.75,5.3,1.78,10.71,3.23,16.07,4.69,22.82,6.23,45.9,11.64,69.9,11.64h.04c1.41.06,2.83.08,4.24.08,8.93,0,17.71-1.21,26.32-3.94,3.54-1.11,6.23-2.39,8.15-3.96,1.88-1.56,2.97-3.52,2.97-5.72,0-1.64-.57-3.33-1.6-5.07ZM239.41,172.36c-1.56,1.29-4.04,2.51-7.44,3.56-8.37,2.65-16.94,3.84-25.67,3.84-1.39,0-2.79-.02-4.18-.08h-.06c-23.69,0-46.59-5.32-69.37-11.56-10.75-2.93-21.47-5.72-31.03-11.24-5.64-3.27-11.06-6.93-16.19-11h-.02c-1.23-.97-2.12-1.9-2.67-2.79-.57-.87-.81-1.68-.81-2.43,0-.79.26-1.58.87-2.45.63-.85,1.6-1.76,2.97-2.67h.02c3.94-2.53,8.67-4.49,13.26-5.38,10.83-2.06,21.67-3.09,32.52-3.09,12.73,0,25.43,1.43,38.08,4.26,12.11,2.73,24.11,6.21,35.94,9.9,9.48,2.93,17.91,8.15,25.91,14.15v.02c1.56,1.13,3.09,2.47,4.55,3.82,1.9,1.86,3.31,3.58,4.22,5.11.91,1.52,1.31,2.85,1.31,3.98-.02,1.48-.65,2.75-2.2,4.08ZM242.15,163.21c-1.05-1.76-2.57-3.58-4.55-5.54v-.02h-.02c-1.5-1.39-3.07-2.77-4.75-4h-.02c-8.09-6.08-16.72-11.46-26.54-14.49-11.86-3.68-23.91-7.18-36.1-9.94-12.81-2.89-25.67-4.31-38.55-4.31-10.96,0-21.97,1.05-32.93,3.13-4.89.95-9.86,2.99-14.01,5.68l-.02.02c-1.52,1.01-2.71,2.06-3.52,3.21-.83,1.15-1.29,2.41-1.29,3.7s.42,2.45,1.15,3.6c.73,1.13,1.78,2.22,3.15,3.31,5.23,4.16,10.75,7.86,16.47,11.18,4.95,2.85,10.15,4.97,15.46,6.75,5.3,1.78,10.71,3.23,16.07,4.69,22.82,6.23,45.9,11.64,69.9,11.64h.04c1.41.06,2.83.08,4.24.08,8.93,0,17.71-1.21,26.32-3.94,3.54-1.11,6.23-2.39,8.15-3.96,1.88-1.56,2.97-3.52,2.97-5.72,0-1.64-.57-3.33-1.6-5.07ZM239.41,172.36c-1.56,1.29-4.04,2.51-7.44,3.56-8.37,2.65-16.94,3.84-25.67,3.84-1.39,0-2.79-.02-4.18-.08h-.06c-23.69,0-46.59-5.32-69.37-11.56-10.75-2.93-21.47-5.72-31.03-11.24-5.64-3.27-11.06-6.93-16.19-11h-.02c-1.23-.97-2.12-1.9-2.67-2.79-.57-.87-.81-1.68-.81-2.43,0-.79.26-1.58.87-2.45.63-.85,1.6-1.76,2.97-2.67h.02c3.94-2.53,8.67-4.49,13.26-5.38,10.83-2.06,21.67-3.09,32.52-3.09,12.73,0,25.43,1.43,38.08,4.26,12.11,2.73,24.11,6.21,35.94,9.9,9.48,2.93,17.91,8.15,25.91,14.15v.02c1.56,1.13,3.09,2.47,4.55,3.82,1.9,1.86,3.31,3.58,4.22,5.11.91,1.52,1.31,2.85,1.31,3.98-.02,1.48-.65,2.75-2.2,4.08ZM242.15,163.21c-1.05-1.76-2.57-3.58-4.55-5.54v-.02h-.02c-1.5-1.39-3.07-2.77-4.75-4h-.02c-8.09-6.08-16.72-11.46-26.54-14.49-11.86-3.68-23.91-7.18-36.1-9.94-12.81-2.89-25.67-4.31-38.55-4.31-10.96,0-21.97,1.05-32.93,3.13-4.89.95-9.86,2.99-14.01,5.68l-.02.02c-1.52,1.01-2.71,2.06-3.52,3.21-.83,1.15-1.29,2.41-1.29,3.7s.42,2.45,1.15,3.6c.73,1.13,1.78,2.22,3.15,3.31,5.23,4.16,10.75,7.86,16.47,11.18,4.95,2.85,10.15,4.97,15.46,6.75,5.3,1.78,10.71,3.23,16.07,4.69,22.82,6.23,45.9,11.64,69.9,11.64h.04c1.41.06,2.83.08,4.24.08,8.93,0,17.71-1.21,26.32-3.94,3.54-1.11,6.23-2.39,8.15-3.96,1.88-1.56,2.97-3.52,2.97-5.72,0-1.64-.57-3.33-1.6-5.07ZM239.41,172.36c-1.56,1.29-4.04,2.51-7.44,3.56-8.37,2.65-16.94,3.84-25.67,3.84-1.39,0-2.79-.02-4.18-.08h-.06c-23.69,0-46.59-5.32-69.37-11.56-10.75-2.93-21.47-5.72-31.03-11.24-5.64-3.27-11.06-6.93-16.19-11h-.02c-1.23-.97-2.12-1.9-2.67-2.79-.57-.87-.81-1.68-.81-2.43,0-.79.26-1.58.87-2.45.63-.85,1.6-1.76,2.97-2.67h.02c3.94-2.53,8.67-4.49,13.26-5.38,10.83-2.06,21.67-3.09,32.52-3.09,12.73,0,25.43,1.43,38.08,4.26,12.11,2.73,24.11,6.21,35.94,9.9,9.48,2.93,17.91,8.15,25.91,14.15v.02c1.56,1.13,3.09,2.47,4.55,3.82,1.9,1.86,3.31,3.58,4.22,5.11.91,1.52,1.31,2.85,1.31,3.98-.02,1.48-.65,2.75-2.2,4.08ZM242.15,163.21c-1.05-1.76-2.57-3.58-4.55-5.54v-.02h-.02c-1.5-1.39-3.07-2.77-4.75-4h-.02c-8.09-6.08-16.72-11.46-26.54-14.49-11.86-3.68-23.91-7.18-36.1-9.94-12.81-2.89-25.67-4.31-38.55-4.31-10.96,0-21.97,1.05-32.93,3.13-4.89.95-9.86,2.99-14.01,5.68l-.02.02c-1.52,1.01-2.71,2.06-3.52,3.21-.83,1.15-1.29,2.41-1.29,3.7s.42,2.45,1.15,3.6c.73,1.13,1.78,2.22,3.15,3.31,5.23,4.16,10.75,7.86,16.47,11.18,4.95,2.85,10.15,4.97,15.46,6.75,5.3,1.78,10.71,3.23,16.07,4.69,22.82,6.23,45.9,11.64,69.9,11.64h.04c1.41.06,2.83.08,4.24.08,8.93,0,17.71-1.21,26.32-3.94,3.54-1.11,6.23-2.39,8.15-3.96,1.88-1.56,2.97-3.52,2.97-5.72,0-1.64-.57-3.33-1.6-5.07ZM239.41,172.36c-1.56,1.29-4.04,2.51-7.44,3.56-8.37,2.65-16.94,3.84-25.67,3.84-1.39,0-2.79-.02-4.18-.08h-.06c-23.69,0-46.59-5.32-69.37-11.56-10.75-2.93-21.47-5.72-31.03-11.24-5.64-3.27-11.06-6.93-16.19-11h-.02c-1.23-.97-2.12-1.9-2.67-2.79-.57-.87-.81-1.68-.81-2.43,0-.79.26-1.58.87-2.45.63-.85,1.6-1.76,2.97-2.67h.02c3.94-2.53,8.67-4.49,13.26-5.38,10.83-2.06,21.67-3.09,32.52-3.09,12.73,0,25.43,1.43,38.08,4.26,12.11,2.73,24.11,6.21,35.94,9.9,9.48,2.93,17.91,8.15,25.91,14.15v.02c1.56,1.13,3.09,2.47,4.55,3.82,1.9,1.86,3.31,3.58,4.22,5.11.91,1.52,1.31,2.85,1.31,3.98-.02,1.48-.65,2.75-2.2,4.08ZM242.15,163.21c-1.05-1.76-2.57-3.58-4.55-5.54v-.02h-.02c-1.5-1.39-3.07-2.77-4.75-4h-.02c-8.09-6.08-16.72-11.46-26.54-14.49-11.86-3.68-23.91-7.18-36.1-9.94-12.81-2.89-25.67-4.31-38.55-4.31-10.96,0-21.97,1.05-32.93,3.13-4.89.95-9.86,2.99-14.01,5.68l-.02.02c-1.52,1.01-2.71,2.06-3.52,3.21-.83,1.15-1.29,2.41-1.29,3.7s.42,2.45,1.15,3.6c.73,1.13,1.78,2.22,3.15,3.31,5.23,4.16,10.75,7.86,16.47,11.18,4.95,2.85,10.15,4.97,15.46,6.75,5.3,1.78,10.71,3.23,16.07,4.69,22.82,6.23,45.9,11.64,69.9,11.64h.04c1.41.06,2.83.08,4.24.08,8.93,0,17.71-1.21,26.32-3.94,3.54-1.11,6.23-2.39,8.15-3.96,1.88-1.56,2.97-3.52,2.97-5.72,0-1.64-.57-3.33-1.6-5.07ZM239.41,172.36c-1.56,1.29-4.04,2.51-7.44,3.56-8.37,2.65-16.94,3.84-25.67,3.84-1.39,0-2.79-.02-4.18-.08h-.06c-23.69,0-46.59-5.32-69.37-11.56-10.75-2.93-21.47-5.72-31.03-11.24-5.64-3.27-11.06-6.93-16.19-11h-.02c-1.23-.97-2.12-1.9-2.67-2.79-.57-.87-.81-1.68-.81-2.43,0-.79.26-1.58.87-2.45.63-.85,1.6-1.76,2.97-2.67h.02c3.94-2.53,8.67-4.49,13.26-5.38,10.83-2.06,21.67-3.09,32.52-3.09,12.73,0,25.43,1.43,38.08,4.26,12.11,2.73,24.11,6.21,35.94,9.9,9.48,2.93,17.91,8.15,25.91,14.15v.02c1.56,1.13,3.09,2.47,4.55,3.82,1.9,1.86,3.31,3.58,4.22,5.11.91,1.52,1.31,2.85,1.31,3.98-.02,1.48-.65,2.75-2.2,4.08ZM242.15,163.21c-1.05-1.76-2.57-3.58-4.55-5.54v-.02h-.02c-1.5-1.39-3.07-2.77-4.75-4h-.02c-8.09-6.08-16.72-11.46-26.54-14.49-11.86-3.68-23.91-7.18-36.1-9.94-12.81-2.89-25.67-4.31-38.55-4.31-10.96,0-21.97,1.05-32.93,3.13-4.89.95-9.86,2.99-14.01,5.68l-.02.02c-1.52,1.01-2.71,2.06-3.52,3.21-.83,1.15-1.29,2.41-1.29,3.7s.42,2.45,1.15,3.6c.73,1.13,1.78,2.22,3.15,3.31,5.23,4.16,10.75,7.86,16.47,11.18,4.95,2.85,10.15,4.97,15.46,6.75,5.3,1.78,10.71,3.23,16.07,4.69,22.82,6.23,45.9,11.64,69.9,11.64h.04c1.41.06,2.83.08,4.24.08,8.93,0,17.71-1.21,26.32-3.94,3.54-1.11,6.23-2.39,8.15-3.96,1.88-1.56,2.97-3.52,2.97-5.72,0-1.64-.57-3.33-1.6-5.07ZM239.41,172.36c-1.56,1.29-4.04,2.51-7.44,3.56-8.37,2.65-16.94,3.84-25.67,3.84-1.39,0-2.79-.02-4.18-.08h-.06c-23.69,0-46.59-5.32-69.37-11.56-10.75-2.93-21.47-5.72-31.03-11.24-5.64-3.27-11.06-6.93-16.19-11h-.02c-1.23-.97-2.12-1.9-2.67-2.79-.57-.87-.81-1.68-.81-2.43,0-.79.26-1.58.87-2.45.63-.85,1.6-1.76,2.97-2.67h.02c3.94-2.53,8.67-4.49,13.26-5.38,10.83-2.06,21.67-3.09,32.52-3.09,12.73,0,25.43,1.43,38.08,4.26,12.11,2.73,24.11,6.21,35.94,9.9,9.48,2.93,17.91,8.15,25.91,14.15v.02c1.56,1.13,3.09,2.47,4.55,3.82,1.9,1.86,3.31,3.58,4.22,5.11.91,1.52,1.31,2.85,1.31,3.98-.02,1.48-.65,2.75-2.2,4.08ZM242.15,163.21c-1.05-1.76-2.57-3.58-4.55-5.54v-.02h-.02c-1.5-1.39-3.07-2.77-4.75-4h-.02c-8.09-6.08-16.72-11.46-26.54-14.49-11.86-3.68-23.91-7.18-36.1-9.94-12.81-2.89-25.67-4.31-38.55-4.31-10.96,0-21.97,1.05-32.93,3.13-4.89.95-9.86,2.99-14.01,5.68l-.02.02c-1.52,1.01-2.71,2.06-3.52,3.21-.83,1.15-1.29,2.41-1.29,3.7s.42,2.45,1.15,3.6c.73,1.13,1.78,2.22,3.15,3.31,5.23,4.16,10.75,7.86,16.47,11.18,4.95,2.85,10.15,4.97,15.46,6.75,5.3,1.78,10.71,3.23,16.07,4.69,22.82,6.23,45.9,11.64,69.9,11.64h.04c1.41.06,2.83.08,4.24.08,8.93,0,17.71-1.21,26.32-3.94,3.54-1.11,6.23-2.39,8.15-3.96,1.88-1.56,2.97-3.52,2.97-5.72,0-1.64-.57-3.33-1.6-5.07ZM239.41,172.36c-1.56,1.29-4.04,2.51-7.44,3.56-8.37,2.65-16.94,3.84-25.67,3.84-1.39,0-2.79-.02-4.18-.08h-.06c-23.69,0-46.59-5.32-69.37-11.56-10.75-2.93-21.47-5.72-31.03-11.24-5.64-3.27-11.06-6.93-16.19-11h-.02c-1.23-.97-2.12-1.9-2.67-2.79-.57-.87-.81-1.68-.81-2.43,0-.79.26-1.58.87-2.45.63-.85,1.6-1.76,2.97-2.67h.02c3.94-2.53,8.67-4.49,13.26-5.38,10.83-2.06,21.67-3.09,32.52-3.09,12.73,0,25.43,1.43,38.08,4.26,12.11,2.73,24.11,6.21,35.94,9.9,9.48,2.93,17.91,8.15,25.91,14.15v.02c1.56,1.13,3.09,2.47,4.55,3.82,1.9,1.86,3.31,3.58,4.22,5.11.91,1.52,1.31,2.85,1.31,3.98-.02,1.48-.65,2.75-2.2,4.08ZM242.15,163.21c-1.05-1.76-2.57-3.58-4.55-5.54v-.02h-.02c-1.5-1.39-3.07-2.77-4.75-4h-.02c-8.09-6.08-16.72-11.46-26.54-14.49-11.86-3.68-23.91-7.18-36.1-9.94-12.81-2.89-25.67-4.31-38.55-4.31-10.96,0-21.97,1.05-32.93,3.13-4.89.95-9.86,2.99-14.01,5.68l-.02.02c-1.52,1.01-2.71,2.06-3.52,3.21-.83,1.15-1.29,2.41-1.29,3.7s.42,2.45,1.15,3.6c.73,1.13,1.78,2.22,3.15,3.31,5.23,4.16,10.75,7.86,16.47,11.18,4.95,2.85,10.15,4.97,15.46,6.75,5.3,1.78,10.71,3.23,16.07,4.69,22.82,6.23,45.9,11.64,69.9,11.64h.04c1.41.06,2.83.08,4.24.08,8.93,0,17.71-1.21,26.32-3.94,3.54-1.11,6.23-2.39,8.15-3.96,1.88-1.56,2.97-3.52,2.97-5.72,0-1.64-.57-3.33-1.6-5.07ZM239.41,172.36c-1.56,1.29-4.04,2.51-7.44,3.56-8.37,2.65-16.94,3.84-25.67,3.84-1.39,0-2.79-.02-4.18-.08h-.06c-23.69,0-46.59-5.32-69.37-11.56-10.75-2.93-21.47-5.72-31.03-11.24-5.64-3.27-11.06-6.93-16.19-11h-.02c-1.23-.97-2.12-1.9-2.67-2.79-.57-.87-.81-1.68-.81-2.43,0-.79.26-1.58.87-2.45.63-.85,1.6-1.76,2.97-2.67h.02c3.94-2.53,8.67-4.49,13.26-5.38,10.83-2.06,21.67-3.09,32.52-3.09,12.73,0,25.43,1.43,38.08,4.26,12.11,2.73,24.11,6.21,35.94,9.9,9.48,2.93,17.91,8.15,25.91,14.15v.02c1.56,1.13,3.09,2.47,4.55,3.82,1.9,1.86,3.31,3.58,4.22,5.11.91,1.52,1.31,2.85,1.31,3.98-.02,1.48-.65,2.75-2.2,4.08ZM242.15,163.21c-1.05-1.76-2.57-3.58-4.55-5.54v-.02h-.02c-1.5-1.39-3.07-2.77-4.75-4h-.02c-8.09-6.08-16.72-11.46-26.54-14.49-11.86-3.68-23.91-7.18-36.1-9.94-12.81-2.89-25.67-4.31-38.55-4.31-10.96,0-21.97,1.05-32.93,3.13-4.89.95-9.86,2.99-14.01,5.68l-.02.02c-1.52,1.01-2.71,2.06-3.52,3.21-.83,1.15-1.29,2.41-1.29,3.7s.42,2.45,1.15,3.6c.73,1.13,1.78,2.22,3.15,3.31,5.23,4.16,10.75,7.86,16.47,11.18,4.95,2.85,10.15,4.97,15.46,6.75,5.3,1.78,10.71,3.23,16.07,4.69,22.82,6.23,45.9,11.64,69.9,11.64h.04c1.41.06,2.83.08,4.24.08,8.93,0,17.71-1.21,26.32-3.94,3.54-1.11,6.23-2.39,8.15-3.96,1.88-1.56,2.97-3.52,2.97-5.72,0-1.64-.57-3.33-1.6-5.07ZM239.41,172.36c-1.56,1.29-4.04,2.51-7.44,3.56-8.37,2.65-16.94,3.84-25.67,3.84-1.39,0-2.79-.02-4.18-.08h-.06c-23.69,0-46.59-5.32-69.37-11.56-10.75-2.93-21.47-5.72-31.03-11.24-5.64-3.27-11.06-6.93-16.19-11h-.02c-1.23-.97-2.12-1.9-2.67-2.79-.57-.87-.81-1.68-.81-2.43,0-.79.26-1.58.87-2.45.63-.85,1.6-1.76,2.97-2.67h.02c3.94-2.53,8.67-4.49,13.26-5.38,10.83-2.06,21.67-3.09,32.52-3.09,12.73,0,25.43,1.43,38.08,4.26,12.11,2.73,24.11,6.21,35.94,9.9,9.48,2.93,17.91,8.15,25.91,14.15v.02c1.56,1.13,3.09,2.47,4.55,3.82,1.9,1.86,3.31,3.58,4.22,5.11.91,1.52,1.31,2.85,1.31,3.98-.02,1.48-.65,2.75-2.2,4.08ZM242.15,163.21c-1.05-1.76-2.57-3.58-4.55-5.54v-.02h-.02c-1.5-1.39-3.07-2.77-4.75-4h-.02c-8.09-6.08-16.72-11.46-26.54-14.49-11.86-3.68-23.91-7.18-36.1-9.94-12.81-2.89-25.67-4.31-38.55-4.31-10.96,0-21.97,1.05-32.93,3.13-4.89.95-9.86,2.99-14.01,5.68l-.02.02c-1.52,1.01-2.71,2.06-3.52,3.21-.83,1.15-1.29,2.41-1.29,3.7s.42,2.45,1.15,3.6c.73,1.13,1.78,2.22,3.15,3.31,5.23,4.16,10.75,7.86,16.47,11.18,4.95,2.85,10.15,4.97,15.46,6.75,5.3,1.78,10.71,3.23,16.07,4.69,22.82,6.23,45.9,11.64,69.9,11.64h.04c1.41.06,2.83.08,4.24.08,8.93,0,17.71-1.21,26.32-3.94,3.54-1.11,6.23-2.39,8.15-3.96,1.88-1.56,2.97-3.52,2.97-5.72,0-1.64-.57-3.33-1.6-5.07ZM239.41,172.36c-1.56,1.29-4.04,2.51-7.44,3.56-8.37,2.65-16.94,3.84-25.67,3.84-1.39,0-2.79-.02-4.18-.08h-.06c-23.69,0-46.59-5.32-69.37-11.56-10.75-2.93-21.47-5.72-31.03-11.24-5.64-3.27-11.06-6.93-16.19-11h-.02c-1.23-.97-2.12-1.9-2.67-2.79-.57-.87-.81-1.68-.81-2.43,0-.79.26-1.58.87-2.45.63-.85,1.6-1.76,2.97-2.67h.02c3.94-2.53,8.67-4.49,13.26-5.38,10.83-2.06,21.67-3.09,32.52-3.09,12.73,0,25.43,1.43,38.08,4.26,12.11,2.73,24.11,6.21,35.94,9.9,9.48,2.93,17.91,8.15,25.91,14.15v.02c1.56,1.13,3.09,2.47,4.55,3.82,1.9,1.86,3.31,3.58,4.22,5.11.91,1.52,1.31,2.85,1.31,3.98-.02,1.48-.65,2.75-2.2,4.08ZM242.15,163.21c-1.05-1.76-2.57-3.58-4.55-5.54v-.02h-.02c-1.5-1.39-3.07-2.77-4.75-4h-.02c-8.09-6.08-16.72-11.46-26.54-14.49-11.86-3.68-23.91-7.18-36.1-9.94-12.81-2.89-25.67-4.31-38.55-4.31-10.96,0-21.97,1.05-32.93,3.13-4.89.95-9.86,2.99-14.01,5.68l-.02.02c-1.52,1.01-2.71,2.06-3.52,3.21-.83,1.15-1.29,2.41-1.29,3.7s.42,2.45,1.15,3.6c.73,1.13,1.78,2.22,3.15,3.31,5.23,4.16,10.75,7.86,16.47,11.18,4.95,2.85,10.15,4.97,15.46,6.75,5.3,1.78,10.71,3.23,16.07,4.69,22.82,6.23,45.9,11.64,69.9,11.64h.04c1.41.06,2.83.08,4.24.08,8.93,0,17.71-1.21,26.32-3.94,3.54-1.11,6.23-2.39,8.15-3.96,1.88-1.56,2.97-3.52,2.97-5.72,0-1.64-.57-3.33-1.6-5.07ZM239.41,172.36c-1.56,1.29-4.04,2.51-7.44,3.56-8.37,2.65-16.94,3.84-25.67,3.84-1.39,0-2.79-.02-4.18-.08h-.06c-23.69,0-46.59-5.32-69.37-11.56-10.75-2.93-21.47-5.72-31.03-11.24-5.64-3.27-11.06-6.93-16.19-11h-.02c-1.23-.97-2.12-1.9-2.67-2.79-.57-.87-.81-1.68-.81-2.43,0-.79.26-1.58.87-2.45.63-.85,1.6-1.76,2.97-2.67h.02c3.94-2.53,8.67-4.49,13.26-5.38,10.83-2.06,21.67-3.09,32.52-3.09,12.73,0,25.43,1.43,38.08,4.26,12.11,2.73,24.11,6.21,35.94,9.9,9.48,2.93,17.91,8.15,25.91,14.15v.02c1.56,1.13,3.09,2.47,4.55,3.82,1.9,1.86,3.31,3.58,4.22,5.11.91,1.52,1.31,2.85,1.31,3.98-.02,1.48-.65,2.75-2.2,4.08ZM242.15,163.21c-1.05-1.76-2.57-3.58-4.55-5.54v-.02h-.02c-1.5-1.39-3.07-2.77-4.75-4h-.02c-8.09-6.08-16.72-11.46-26.54-14.49-11.86-3.68-23.91-7.18-36.1-9.94-12.81-2.89-25.67-4.31-38.55-4.31-10.96,0-21.97,1.05-32.93,3.13-4.89.95-9.86,2.99-14.01,5.68l-.02.02c-1.52,1.01-2.71,2.06-3.52,3.21-.83,1.15-1.29,2.41-1.29,3.7s.42,2.45,1.15,3.6c.73,1.13,1.78,2.22,3.15,3.31,5.23,4.16,10.75,7.86,16.47,11.18,4.95,2.85,10.15,4.97,15.46,6.75,5.3,1.78,10.71,3.23,16.07,4.69,22.82,6.23,45.9,11.64,69.9,11.64h.04c1.41.06,2.83.08,4.24.08,8.93,0,17.71-1.21,26.32-3.94,3.54-1.11,6.23-2.39,8.15-3.96,1.88-1.56,2.97-3.52,2.97-5.72,0-1.64-.57-3.33-1.6-5.07ZM239.41,172.36c-1.56,1.29-4.04,2.51-7.44,3.56-8.37,2.65-16.94,3.84-25.67,3.84-1.39,0-2.79-.02-4.18-.08h-.06c-23.69,0-46.59-5.32-69.37-11.56-10.75-2.93-21.47-5.72-31.03-11.24-5.64-3.27-11.06-6.93-16.19-11h-.02c-1.23-.97-2.12-1.9-2.67-2.79-.57-.87-.81-1.68-.81-2.43,0-.79.26-1.58.87-2.45.63-.85,1.6-1.76,2.97-2.67h.02c3.94-2.53,8.67-4.49,13.26-5.38,10.83-2.06,21.67-3.09,32.52-3.09,12.73,0,25.43,1.43,38.08,4.26,12.11,2.73,24.11,6.21,35.94,9.9,9.48,2.93,17.91,8.15,25.91,14.15v.02c1.56,1.13,3.09,2.47,4.55,3.82,1.9,1.86,3.31,3.58,4.22,5.11.91,1.52,1.31,2.85,1.31,3.98-.02,1.48-.65,2.75-2.2,4.08ZM242.15,163.21c-1.05-1.76-2.57-3.58-4.55-5.54v-.02h-.02c-1.5-1.39-3.07-2.77-4.75-4h-.02c-8.09-6.08-16.72-11.46-26.54-14.49-11.86-3.68-23.91-7.18-36.1-9.94-12.81-2.89-25.67-4.31-38.55-4.31-10.96,0-21.97,1.05-32.93,3.13-4.89.95-9.86,2.99-14.01,5.68l-.02.02c-1.52,1.01-2.71,2.06-3.52,3.21-.83,1.15-1.29,2.41-1.29,3.7s.42,2.45,1.15,3.6c.73,1.13,1.78,2.22,3.15,3.31,5.23,4.16,10.75,7.86,16.47,11.18,4.95,2.85,10.15,4.97,15.46,6.75,5.3,1.78,10.71,3.23,16.07,4.69,22.82,6.23,45.9,11.64,69.9,11.64h.04c1.41.06,2.83.08,4.24.08,8.93,0,17.71-1.21,26.32-3.94,3.54-1.11,6.23-2.39,8.15-3.96,1.88-1.56,2.97-3.52,2.97-5.72,0-1.64-.57-3.33-1.6-5.07ZM239.41,172.36c-1.56,1.29-4.04,2.51-7.44,3.56-8.37,2.65-16.94,3.84-25.67,3.84-1.39,0-2.79-.02-4.18-.08h-.06c-23.69,0-46.59-5.32-69.37-11.56-10.75-2.93-21.47-5.72-31.03-11.24-5.64-3.27-11.06-6.93-16.19-11h-.02c-1.23-.97-2.12-1.9-2.67-2.79-.57-.87-.81-1.68-.81-2.43,0-.79.26-1.58.87-2.45.63-.85,1.6-1.76,2.97-2.67h.02c3.94-2.53,8.67-4.49,13.26-5.38,10.83-2.06,21.67-3.09,32.52-3.09,12.73,0,25.43,1.43,38.08,4.26,12.11,2.73,24.11,6.21,35.94,9.9,9.48,2.93,17.91,8.15,25.91,14.15v.02c1.56,1.13,3.09,2.47,4.55,3.82,1.9,1.86,3.31,3.58,4.22,5.11.91,1.52,1.31,2.85,1.31,3.98-.02,1.48-.65,2.75-2.2,4.08ZM242.15,163.21c-1.05-1.76-2.57-3.58-4.55-5.54v-.02h-.02c-1.5-1.39-3.07-2.77-4.75-4h-.02c-8.09-6.08-16.72-11.46-26.54-14.49-11.86-3.68-23.91-7.18-36.1-9.94-12.81-2.89-25.67-4.31-38.55-4.31-10.96,0-21.97,1.05-32.93,3.13-4.89.95-9.86,2.99-14.01,5.68l-.02.02c-1.52,1.01-2.71,2.06-3.52,3.21-.83,1.15-1.29,2.41-1.29,3.7s.42,2.45,1.15,3.6c.73,1.13,1.78,2.22,3.15,3.31,5.23,4.16,10.75,7.86,16.47,11.18,4.95,2.85,10.15,4.97,15.46,6.75,5.3,1.78,10.71,3.23,16.07,4.69,22.82,6.23,45.9,11.64,69.9,11.64h.04c1.41.06,2.83.08,4.24.08,8.93,0,17.71-1.21,26.32-3.94,3.54-1.11,6.23-2.39,8.15-3.96,1.88-1.56,2.97-3.52,2.97-5.72,0-1.64-.57-3.33-1.6-5.07ZM239.41,172.36c-1.56,1.29-4.04,2.51-7.44,3.56-8.37,2.65-16.94,3.84-25.67,3.84-1.39,0-2.79-.02-4.18-.08h-.06c-23.69,0-46.59-5.32-69.37-11.56-10.75-2.93-21.47-5.72-31.03-11.24-5.64-3.27-11.06-6.93-16.19-11h-.02c-1.23-.97-2.12-1.9-2.67-2.79-.57-.87-.81-1.68-.81-2.43,0-.79.26-1.58.87-2.45.63-.85,1.6-1.76,2.97-2.67h.02c3.94-2.53,8.67-4.49,13.26-5.38,10.83-2.06,21.67-3.09,32.52-3.09,12.73,0,25.43,1.43,38.08,4.26,12.11,2.73,24.11,6.21,35.94,9.9,9.48,2.93,17.91,8.15,25.91,14.15v.02c1.56,1.13,3.09,2.47,4.55,3.82,1.9,1.86,3.31,3.58,4.22,5.11.91,1.52,1.31,2.85,1.31,3.98-.02,1.48-.65,2.75-2.2,4.08ZM242.15,163.21c-1.05-1.76-2.57-3.58-4.55-5.54v-.02h-.02c-1.5-1.39-3.07-2.77-4.75-4h-.02c-8.09-6.08-16.72-11.46-26.54-14.49-11.86-3.68-23.91-7.18-36.1-9.94-12.81-2.89-25.67-4.31-38.55-4.31-10.96,0-21.97,1.05-32.93,3.13-4.89.95-9.86,2.99-14.01,5.68l-.02.02c-1.52,1.01-2.71,2.06-3.52,3.21-.83,1.15-1.29,2.41-1.29,3.7s.42,2.45,1.15,3.6c.73,1.13,1.78,2.22,3.15,3.31,5.23,4.16,10.75,7.86,16.47,11.18,4.95,2.85,10.15,4.97,15.46,6.75,5.3,1.78,10.71,3.23,16.07,4.69,22.82,6.23,45.9,11.64,69.9,11.64h.04c1.41.06,2.83.08,4.24.08,8.93,0,17.71-1.21,26.32-3.94,3.54-1.11,6.23-2.39,8.15-3.96,1.88-1.56,2.97-3.52,2.97-5.72,0-1.64-.57-3.33-1.6-5.07ZM239.41,172.36c-1.56,1.29-4.04,2.51-7.44,3.56-8.37,2.65-16.94,3.84-25.67,3.84-1.39,0-2.79-.02-4.18-.08h-.06c-23.69,0-46.59-5.32-69.37-11.56-10.75-2.93-21.47-5.72-31.03-11.24-5.64-3.27-11.06-6.93-16.19-11h-.02c-1.23-.97-2.12-1.9-2.67-2.79-.57-.87-.81-1.68-.81-2.43,0-.79.26-1.58.87-2.45.63-.85,1.6-1.76,2.97-2.67h.02c3.94-2.53,8.67-4.49,13.26-5.38,10.83-2.06,21.67-3.09,32.52-3.09,12.73,0,25.43,1.43,38.08,4.26,12.11,2.73,24.11,6.21,35.94,9.9,9.48,2.93,17.91,8.15,25.91,14.15v.02c1.56,1.13,3.09,2.47,4.55,3.82,1.9,1.86,3.31,3.58,4.22,5.11.91,1.52,1.31,2.85,1.31,3.98-.02,1.48-.65,2.75-2.2,4.08ZM242.15,163.21c-1.05-1.76-2.57-3.58-4.55-5.54v-.02h-.02c-1.5-1.39-3.07-2.77-4.75-4h-.02c-8.09-6.08-16.72-11.46-26.54-14.49-11.86-3.68-23.91-7.18-36.1-9.94-12.81-2.89-25.67-4.31-38.55-4.31-10.96,0-21.97,1.05-32.93,3.13-4.89.95-9.86,2.99-14.01,5.68l-.02.02c-1.52,1.01-2.71,2.06-3.52,3.21-.83,1.15-1.29,2.41-1.29,3.7s.42,2.45,1.15,3.6c.73,1.13,1.78,2.22,3.15,3.31,5.23,4.16,10.75,7.86,16.47,11.18,4.95,2.85,10.15,4.97,15.46,6.75,5.3,1.78,10.71,3.23,16.07,4.69,22.82,6.23,45.9,11.64,69.9,11.64h.04c1.41.06,2.83.08,4.24.08,8.93,0,17.71-1.21,26.32-3.94,3.54-1.11,6.23-2.39,8.15-3.96,1.88-1.56,2.97-3.52,2.97-5.72,0-1.64-.57-3.33-1.6-5.07ZM239.41,172.36c-1.56,1.29-4.04,2.51-7.44,3.56-8.37,2.65-16.94,3.84-25.67,3.84-1.39,0-2.79-.02-4.18-.08h-.06c-23.69,0-46.59-5.32-69.37-11.56-10.75-2.93-21.47-5.72-31.03-11.24-5.64-3.27-11.06-6.93-16.19-11h-.02c-1.23-.97-2.12-1.9-2.67-2.79-.57-.87-.81-1.68-.81-2.43,0-.79.26-1.58.87-2.45.63-.85,1.6-1.76,2.97-2.67h.02c3.94-2.53,8.67-4.49,13.26-5.38,10.83-2.06,21.67-3.09,32.52-3.09,12.73,0,25.43,1.43,38.08,4.26,12.11,2.73,24.11,6.21,35.94,9.9,9.48,2.93,17.91,8.15,25.91,14.15v.02c1.56,1.13,3.09,2.47,4.55,3.82,1.9,1.86,3.31,3.58,4.22,5.11.91,1.52,1.31,2.85,1.31,3.98-.02,1.48-.65,2.75-2.2,4.08ZM242.15,163.21c-1.05-1.76-2.57-3.58-4.55-5.54v-.02h-.02c-1.5-1.39-3.07-2.77-4.75-4h-.02c-8.09-6.08-16.72-11.46-26.54-14.49-11.86-3.68-23.91-7.18-36.1-9.94-12.81-2.89-25.67-4.31-38.55-4.31-10.96,0-21.97,1.05-32.93,3.13-4.89.95-9.86,2.99-14.01,5.68l-.02.02c-1.52,1.01-2.71,2.06-3.52,3.21-.83,1.15-1.29,2.41-1.29,3.7s.42,2.45,1.15,3.6c.73,1.13,1.78,2.22,3.15,3.31,5.23,4.16,10.75,7.86,16.47,11.18,4.95,2.85,10.15,4.97,15.46,6.75,5.3,1.78,10.71,3.23,16.07,4.69,22.82,6.23,45.9,11.64,69.9,11.64h.04c1.41.06,2.83.08,4.24.08,8.93,0,17.71-1.21,26.32-3.94,3.54-1.11,6.23-2.39,8.15-3.96,1.88-1.56,2.97-3.52,2.97-5.72,0-1.64-.57-3.33-1.6-5.07ZM239.41,172.36c-1.56,1.29-4.04,2.51-7.44,3.56-8.37,2.65-16.94,3.84-25.67,3.84-1.39,0-2.79-.02-4.18-.08h-.06c-23.69,0-46.59-5.32-69.37-11.56-10.75-2.93-21.47-5.72-31.03-11.24-5.64-3.27-11.06-6.93-16.19-11h-.02c-1.23-.97-2.12-1.9-2.67-2.79-.57-.87-.81-1.68-.81-2.43,0-.79.26-1.58.87-2.45.63-.85,1.6-1.76,2.97-2.67h.02c3.94-2.53,8.67-4.49,13.26-5.38,10.83-2.06,21.67-3.09,32.52-3.09,12.73,0,25.43,1.43,38.08,4.26,12.11,2.73,24.11,6.21,35.94,9.9,9.48,2.93,17.91,8.15,25.91,14.15v.02c1.56,1.13,3.09,2.47,4.55,3.82,1.9,1.86,3.31,3.58,4.22,5.11.91,1.52,1.31,2.85,1.31,3.98-.02,1.48-.65,2.75-2.2,4.08ZM242.15,163.21c-1.05-1.76-2.57-3.58-4.55-5.54v-.02h-.02c-1.5-1.39-3.07-2.77-4.75-4h-.02c-8.09-6.08-16.72-11.46-26.54-14.49-11.86-3.68-23.91-7.18-36.1-9.94-12.81-2.89-25.67-4.31-38.55-4.31-10.96,0-21.97,1.05-32.93,3.13-4.89.95-9.86,2.99-14.01,5.68l-.02.02c-1.52,1.01-2.71,2.06-3.52,3.21-.83,1.15-1.29,2.41-1.29,3.7s.42,2.45,1.15,3.6c.73,1.13,1.78,2.22,3.15,3.31,5.23,4.16,10.75,7.86,16.47,11.18,4.95,2.85,10.15,4.97,15.46,6.75,5.3,1.78,10.71,3.23,16.07,4.69,22.82,6.23,45.9,11.64,69.9,11.64h.04c1.41.06,2.83.08,4.24.08,8.93,0,17.71-1.21,26.32-3.94,3.54-1.11,6.23-2.39,8.15-3.96,1.88-1.56,2.97-3.52,2.97-5.72,0-1.64-.57-3.33-1.6-5.07ZM239.41,172.36c-1.56,1.29-4.04,2.51-7.44,3.56-8.37,2.65-16.94,3.84-25.67,3.84-1.39,0-2.79-.02-4.18-.08h-.06c-23.69,0-46.59-5.32-69.37-11.56-10.75-2.93-21.47-5.72-31.03-11.24-5.64-3.27-11.06-6.93-16.19-11h-.02c-1.23-.97-2.12-1.9-2.67-2.79-.57-.87-.81-1.68-.81-2.43,0-.79.26-1.58.87-2.45.63-.85,1.6-1.76,2.97-2.67h.02c3.94-2.53,8.67-4.49,13.26-5.38,10.83-2.06,21.67-3.09,32.52-3.09,12.73,0,25.43,1.43,38.08,4.26,12.11,2.73,24.11,6.21,35.94,9.9,9.48,2.93,17.91,8.15,25.91,14.15v.02c1.56,1.13,3.09,2.47,4.55,3.82,1.9,1.86,3.31,3.58,4.22,5.11.91,1.52,1.31,2.85,1.31,3.98-.02,1.48-.65,2.75-2.2,4.08ZM288.32,197.51c-.53-3.58-1.01-7.5-2.16-11.2-1.17-3.68-3.05-7.18-6.39-9.74-6.04-4.63-14.31-6.73-21.73-6.75-.38,0-2.95.06-4.63.06h-.46c-.18-3.09-.79-5.86-1.78-8.37-1.07-2.77-2.57-5.24-4.37-7.44-3.58-4.39-8.31-7.82-13.16-10.98-4.12-2.65-8.41-4.93-12.83-6.83-13.1-5.36-26.44-9.74-40.04-12.96s-27.49-5.3-41.7-6.12c-3.64-.2-7.3-.3-10.94-.3-10.73,0-21.43.91-32.02,3.31-4.77,1.05-8.85,2.36-12.33,4.06-3.46,1.7-6.33,3.8-8.67,6.41-4.65,5.23-7.09,12.35-8.25,22.03v.02c-.06.53-.06.95-.12,1.37-1.05,9.18-1.6,18.37-1.6,27.55s.53,18.13,1.66,27.17c1.13,8.87,2.85,17.54,5.74,25.81,2.87,8.25,6.89,16.09,12.63,23.28,17.73,22.34,41.52,32.79,69.67,32.79h.34c25.35-.04,47.28-8.79,64.13-28.48,2.55-3.07,4.67-6.27,7.09-9.2l.02-.02c.53-.59,1.17-1.25,1.8-1.74.63-.49,1.25-.75,1.54-.75,9.08,0,19.1-1.84,28.34-5.6,9.22-3.74,17.67-9.38,23.57-17,2.34-3.03,4.28-6.37,5.68-10.03,1.31-3.44,1.76-7.18,1.76-10.89,0-3.23-.34-6.43-.77-9.44ZM257.27,242.89c-8.95,3.64-18.72,5.46-27.53,5.44-1.13.02-2.04.57-2.85,1.21-.81.61-1.52,1.39-2.12,2.02v.02l-.02.02c-2.55,3.05-4.67,6.27-7.09,9.2l-.02.02c-16.47,19.18-37.62,27.63-62.48,27.71h-.26c-27.67-.02-50.69-10.13-68.08-32-5.54-6.97-9.46-14.57-12.27-22.64-2.81-8.08-4.51-16.59-5.64-25.37-1.11-8.97-1.64-17.91-1.64-26.9s.55-18.21,1.58-27.29c.08-.57.08-1.01.12-1.35v-.02c.57-4.75,1.44-8.79,2.71-12.21,1.25-3.44,2.91-6.29,5.03-8.67,4.24-4.75,10.51-7.76,19.85-9.8,10.43-2.36,20.96-3.27,31.57-3.27,3.6,0,7.22.1,10.83.3,14.09.81,27.83,2.87,41.33,6.06,13.5,3.21,26.7,7.54,39.7,12.86h.02c4.29,1.84,8.47,4.06,12.47,6.63,4.79,3.13,9.32,6.45,12.67,10.57,3.34,4.12,5.54,8.97,5.72,15.46v.04c.02.34.18.59.32.71.24.24.36.24.44.28l.26.06c.2.02.38.02.63.04h.91c1.7,0,4.33-.06,4.63-.06,7.03,0,14.9,2.04,20.44,6.29,2.89,2.24,4.55,5.26,5.64,8.71,1.07,3.42,1.54,7.24,2.08,10.87.42,2.93.75,6.06.75,9.12,0,3.54-.44,7.01-1.62,10.11-1.33,3.46-3.15,6.61-5.38,9.5-5.58,7.24-13.72,12.71-22.68,16.33ZM237.59,157.67v-.02h-.02c-1.5-1.39-3.07-2.77-4.75-4h-.02c-8.09-6.08-16.72-11.46-26.54-14.49-11.86-3.68-23.91-7.18-36.1-9.94-12.81-2.89-25.67-4.31-38.55-4.31-10.96,0-21.97,1.05-32.93,3.13-4.89.95-9.86,2.99-14.01,5.68l-.02.02c-1.52,1.01-2.71,2.06-3.52,3.21-.83,1.15-1.29,2.41-1.29,3.7s.42,2.45,1.15,3.6c.73,1.13,1.78,2.22,3.15,3.31,5.23,4.16,10.75,7.86,16.47,11.18,4.95,2.85,10.15,4.97,15.46,6.75,5.3,1.78,10.71,3.23,16.07,4.69,22.82,6.23,45.9,11.64,69.9,11.64h.04c1.41.06,2.83.08,4.24.08,8.93,0,17.71-1.21,26.32-3.94,3.54-1.11,6.23-2.39,8.15-3.96,1.88-1.56,2.97-3.52,2.97-5.72,0-1.64-.57-3.33-1.6-5.07-1.05-1.76-2.57-3.58-4.55-5.54ZM239.41,172.36c-1.56,1.29-4.04,2.51-7.44,3.56-8.37,2.65-16.94,3.84-25.67,3.84-1.39,0-2.79-.02-4.18-.08h-.06c-23.69,0-46.59-5.32-69.37-11.56-10.75-2.93-21.47-5.72-31.03-11.24-5.64-3.27-11.06-6.93-16.19-11h-.02c-1.23-.97-2.12-1.9-2.67-2.79-.57-.87-.81-1.68-.81-2.43,0-.79.26-1.58.87-2.45.63-.85,1.6-1.76,2.97-2.67h.02c3.94-2.53,8.67-4.49,13.26-5.38,10.83-2.06,21.67-3.09,32.52-3.09,12.73,0,25.43,1.43,38.08,4.26,12.11,2.73,24.11,6.21,35.94,9.9,9.48,2.93,17.91,8.15,25.91,14.15v.02c1.56,1.13,3.09,2.47,4.55,3.82,1.9,1.86,3.31,3.58,4.22,5.11.91,1.52,1.31,2.85,1.31,3.98-.02,1.48-.65,2.75-2.2,4.08ZM242.15,163.21c-1.05-1.76-2.57-3.58-4.55-5.54v-.02h-.02c-1.5-1.39-3.07-2.77-4.75-4h-.02c-8.09-6.08-16.72-11.46-26.54-14.49-11.86-3.68-23.91-7.18-36.1-9.94-12.81-2.89-25.67-4.31-38.55-4.31-10.96,0-21.97,1.05-32.93,3.13-4.89.95-9.86,2.99-14.01,5.68l-.02.02c-1.52,1.01-2.71,2.06-3.52,3.21-.83,1.15-1.29,2.41-1.29,3.7s.42,2.45,1.15,3.6c.73,1.13,1.78,2.22,3.15,3.31,5.23,4.16,10.75,7.86,16.47,11.18,4.95,2.85,10.15,4.97,15.46,6.75,5.3,1.78,10.71,3.23,16.07,4.69,22.82,6.23,45.9,11.64,69.9,11.64h.04c1.41.06,2.83.08,4.24.08,8.93,0,17.71-1.21,26.32-3.94,3.54-1.11,6.23-2.39,8.15-3.96,1.88-1.56,2.97-3.52,2.97-5.72,0-1.64-.57-3.33-1.6-5.07ZM239.41,172.36c-1.56,1.29-4.04,2.51-7.44,3.56-8.37,2.65-16.94,3.84-25.67,3.84-1.39,0-2.79-.02-4.18-.08h-.06c-23.69,0-46.59-5.32-69.37-11.56-10.75-2.93-21.47-5.72-31.03-11.24-5.64-3.27-11.06-6.93-16.19-11h-.02c-1.23-.97-2.12-1.9-2.67-2.79-.57-.87-.81-1.68-.81-2.43,0-.79.26-1.58.87-2.45.63-.85,1.6-1.76,2.97-2.67h.02c3.94-2.53,8.67-4.49,13.26-5.38,10.83-2.06,21.67-3.09,32.52-3.09,12.73,0,25.43,1.43,38.08,4.26,12.11,2.73,24.11,6.21,35.94,9.9,9.48,2.93,17.91,8.15,25.91,14.15v.02c1.56,1.13,3.09,2.47,4.55,3.82,1.9,1.86,3.31,3.58,4.22,5.11.91,1.52,1.31,2.85,1.31,3.98-.02,1.48-.65,2.75-2.2,4.08ZM242.15,163.21c-1.05-1.76-2.57-3.58-4.55-5.54v-.02h-.02c-1.5-1.39-3.07-2.77-4.75-4h-.02c-8.09-6.08-16.72-11.46-26.54-14.49-11.86-3.68-23.91-7.18-36.1-9.94-12.81-2.89-25.67-4.31-38.55-4.31-10.96,0-21.97,1.05-32.93,3.13-4.89.95-9.86,2.99-14.01,5.68l-.02.02c-1.52,1.01-2.71,2.06-3.52,3.21-.83,1.15-1.29,2.41-1.29,3.7s.42,2.45,1.15,3.6c.73,1.13,1.78,2.22,3.15,3.31,5.23,4.16,10.75,7.86,16.47,11.18,4.95,2.85,10.15,4.97,15.46,6.75,5.3,1.78,10.71,3.23,16.07,4.69,22.82,6.23,45.9,11.64,69.9,11.64h.04c1.41.06,2.83.08,4.24.08,8.93,0,17.71-1.21,26.32-3.94,3.54-1.11,6.23-2.39,8.15-3.96,1.88-1.56,2.97-3.52,2.97-5.72,0-1.64-.57-3.33-1.6-5.07ZM239.41,172.36c-1.56,1.29-4.04,2.51-7.44,3.56-8.37,2.65-16.94,3.84-25.67,3.84-1.39,0-2.79-.02-4.18-.08h-.06c-23.69,0-46.59-5.32-69.37-11.56-10.75-2.93-21.47-5.72-31.03-11.24-5.64-3.27-11.06-6.93-16.19-11h-.02c-1.23-.97-2.12-1.9-2.67-2.79-.57-.87-.81-1.68-.81-2.43,0-.79.26-1.58.87-2.45.63-.85,1.6-1.76,2.97-2.67h.02c3.94-2.53,8.67-4.49,13.26-5.38,10.83-2.06,21.67-3.09,32.52-3.09,12.73,0,25.43,1.43,38.08,4.26,12.11,2.73,24.11,6.21,35.94,9.9,9.48,2.93,17.91,8.15,25.91,14.15v.02c1.56,1.13,3.09,2.47,4.55,3.82,1.9,1.86,3.31,3.58,4.22,5.11.91,1.52,1.31,2.85,1.31,3.98-.02,1.48-.65,2.75-2.2,4.08ZM242.15,163.21c-1.05-1.76-2.57-3.58-4.55-5.54v-.02h-.02c-1.5-1.39-3.07-2.77-4.75-4h-.02c-8.09-6.08-16.72-11.46-26.54-14.49-11.86-3.68-23.91-7.18-36.1-9.94-12.81-2.89-25.67-4.31-38.55-4.31-10.96,0-21.97,1.05-32.93,3.13-4.89.95-9.86,2.99-14.01,5.68l-.02.02c-1.52,1.01-2.71,2.06-3.52,3.21-.83,1.15-1.29,2.41-1.29,3.7s.42,2.45,1.15,3.6c.73,1.13,1.78,2.22,3.15,3.31,5.23,4.16,10.75,7.86,16.47,11.18,4.95,2.85,10.15,4.97,15.46,6.75,5.3,1.78,10.71,3.23,16.07,4.69,22.82,6.23,45.9,11.64,69.9,11.64h.04c1.41.06,2.83.08,4.24.08,8.93,0,17.71-1.21,26.32-3.94,3.54-1.11,6.23-2.39,8.15-3.96,1.88-1.56,2.97-3.52,2.97-5.72,0-1.64-.57-3.33-1.6-5.07ZM239.41,172.36c-1.56,1.29-4.04,2.51-7.44,3.56-8.37,2.65-16.94,3.84-25.67,3.84-1.39,0-2.79-.02-4.18-.08h-.06c-23.69,0-46.59-5.32-69.37-11.56-10.75-2.93-21.47-5.72-31.03-11.24-5.64-3.27-11.06-6.93-16.19-11h-.02c-1.23-.97-2.12-1.9-2.67-2.79-.57-.87-.81-1.68-.81-2.43,0-.79.26-1.58.87-2.45.63-.85,1.6-1.76,2.97-2.67h.02c3.94-2.53,8.67-4.49,13.26-5.38,10.83-2.06,21.67-3.09,32.52-3.09,12.73,0,25.43,1.43,38.08,4.26,12.11,2.73,24.11,6.21,35.94,9.9,9.48,2.93,17.91,8.15,25.91,14.15v.02c1.56,1.13,3.09,2.47,4.55,3.82,1.9,1.86,3.31,3.58,4.22,5.11.91,1.52,1.31,2.85,1.31,3.98-.02,1.48-.65,2.75-2.2,4.08ZM242.15,163.21c-1.05-1.76-2.57-3.58-4.55-5.54v-.02h-.02c-1.5-1.39-3.07-2.77-4.75-4h-.02c-8.09-6.08-16.72-11.46-26.54-14.49-11.86-3.68-23.91-7.18-36.1-9.94-12.81-2.89-25.67-4.31-38.55-4.31-10.96,0-21.97,1.05-32.93,3.13-4.89.95-9.86,2.99-14.01,5.68l-.02.02c-1.52,1.01-2.71,2.06-3.52,3.21-.83,1.15-1.29,2.41-1.29,3.7s.42,2.45,1.15,3.6c.73,1.13,1.78,2.22,3.15,3.31,5.23,4.16,10.75,7.86,16.47,11.18,4.95,2.85,10.15,4.97,15.46,6.75,5.3,1.78,10.71,3.23,16.07,4.69,22.82,6.23,45.9,11.64,69.9,11.64h.04c1.41.06,2.83.08,4.24.08,8.93,0,17.71-1.21,26.32-3.94,3.54-1.11,6.23-2.39,8.15-3.96,1.88-1.56,2.97-3.52,2.97-5.72,0-1.64-.57-3.33-1.6-5.07ZM239.41,172.36c-1.56,1.29-4.04,2.51-7.44,3.56-8.37,2.65-16.94,3.84-25.67,3.84-1.39,0-2.79-.02-4.18-.08h-.06c-23.69,0-46.59-5.32-69.37-11.56-10.75-2.93-21.47-5.72-31.03-11.24-5.64-3.27-11.06-6.93-16.19-11h-.02c-1.23-.97-2.12-1.9-2.67-2.79-.57-.87-.81-1.68-.81-2.43,0-.79.26-1.58.87-2.45.63-.85,1.6-1.76,2.97-2.67h.02c3.94-2.53,8.67-4.49,13.26-5.38,10.83-2.06,21.67-3.09,32.52-3.09,12.73,0,25.43,1.43,38.08,4.26,12.11,2.73,24.11,6.21,35.94,9.9,9.48,2.93,17.91,8.15,25.91,14.15v.02c1.56,1.13,3.09,2.47,4.55,3.82,1.9,1.86,3.31,3.58,4.22,5.11.91,1.52,1.31,2.85,1.31,3.98-.02,1.48-.65,2.75-2.2,4.08ZM242.15,163.21c-1.05-1.76-2.57-3.58-4.55-5.54v-.02h-.02c-1.5-1.39-3.07-2.77-4.75-4h-.02c-8.09-6.08-16.72-11.46-26.54-14.49-11.86-3.68-23.91-7.18-36.1-9.94-12.81-2.89-25.67-4.31-38.55-4.31-10.96,0-21.97,1.05-32.93,3.13-4.89.95-9.86,2.99-14.01,5.68l-.02.02c-1.52,1.01-2.71,2.06-3.52,3.21-.83,1.15-1.29,2.41-1.29,3.7s.42,2.45,1.15,3.6c.73,1.13,1.78,2.22,3.15,3.31,5.23,4.16,10.75,7.86,16.47,11.18,4.95,2.85,10.15,4.97,15.46,6.75,5.3,1.78,10.71,3.23,16.07,4.69,22.82,6.23,45.9,11.64,69.9,11.64h.04c1.41.06,2.83.08,4.24.08,8.93,0,17.71-1.21,26.32-3.94,3.54-1.11,6.23-2.39,8.15-3.96,1.88-1.56,2.97-3.52,2.97-5.72,0-1.64-.57-3.33-1.6-5.07ZM239.41,172.36c-1.56,1.29-4.04,2.51-7.44,3.56-8.37,2.65-16.94,3.84-25.67,3.84-1.39,0-2.79-.02-4.18-.08h-.06c-23.69,0-46.59-5.32-69.37-11.56-10.75-2.93-21.47-5.72-31.03-11.24-5.64-3.27-11.06-6.93-16.19-11h-.02c-1.23-.97-2.12-1.9-2.67-2.79-.57-.87-.81-1.68-.81-2.43,0-.79.26-1.58.87-2.45.63-.85,1.6-1.76,2.97-2.67h.02c3.94-2.53,8.67-4.49,13.26-5.38,10.83-2.06,21.67-3.09,32.52-3.09,12.73,0,25.43,1.43,38.08,4.26,12.11,2.73,24.11,6.21,35.94,9.9,9.48,2.93,17.91,8.15,25.91,14.15v.02c1.56,1.13,3.09,2.47,4.55,3.82,1.9,1.86,3.31,3.58,4.22,5.11.91,1.52,1.31,2.85,1.31,3.98-.02,1.48-.65,2.75-2.2,4.08ZM242.15,163.21c-1.05-1.76-2.57-3.58-4.55-5.54v-.02h-.02c-1.5-1.39-3.07-2.77-4.75-4h-.02c-8.09-6.08-16.72-11.46-26.54-14.49-11.86-3.68-23.91-7.18-36.1-9.94-12.81-2.89-25.67-4.31-38.55-4.31-10.96,0-21.97,1.05-32.93,3.13-4.89.95-9.86,2.99-14.01,5.68l-.02.02c-1.52,1.01-2.71,2.06-3.52,3.21-.83,1.15-1.29,2.41-1.29,3.7s.42,2.45,1.15,3.6c.73,1.13,1.78,2.22,3.15,3.31,5.23,4.16,10.75,7.86,16.47,11.18,4.95,2.85,10.15,4.97,15.46,6.75,5.3,1.78,10.71,3.23,16.07,4.69,22.82,6.23,45.9,11.64,69.9,11.64h.04c1.41.06,2.83.08,4.24.08,8.93,0,17.71-1.21,26.32-3.94,3.54-1.11,6.23-2.39,8.15-3.96,1.88-1.56,2.97-3.52,2.97-5.72,0-1.64-.57-3.33-1.6-5.07ZM239.41,172.36c-1.56,1.29-4.04,2.51-7.44,3.56-8.37,2.65-16.94,3.84-25.67,3.84-1.39,0-2.79-.02-4.18-.08h-.06c-23.69,0-46.59-5.32-69.37-11.56-10.75-2.93-21.47-5.72-31.03-11.24-5.64-3.27-11.06-6.93-16.19-11h-.02c-1.23-.97-2.12-1.9-2.67-2.79-.57-.87-.81-1.68-.81-2.43,0-.79.26-1.58.87-2.45.63-.85,1.6-1.76,2.97-2.67h.02c3.94-2.53,8.67-4.49,13.26-5.38,10.83-2.06,21.67-3.09,32.52-3.09,12.73,0,25.43,1.43,38.08,4.26,12.11,2.73,24.11,6.21,35.94,9.9,9.48,2.93,17.91,8.15,25.91,14.15v.02c1.56,1.13,3.09,2.47,4.55,3.82,1.9,1.86,3.31,3.58,4.22,5.11.91,1.52,1.31,2.85,1.31,3.98-.02,1.48-.65,2.75-2.2,4.08ZM242.15,163.21c-1.05-1.76-2.57-3.58-4.55-5.54v-.02h-.02c-1.5-1.39-3.07-2.77-4.75-4h-.02c-8.09-6.08-16.72-11.46-26.54-14.49-11.86-3.68-23.91-7.18-36.1-9.94-12.81-2.89-25.67-4.31-38.55-4.31-10.96,0-21.97,1.05-32.93,3.13-4.89.95-9.86,2.99-14.01,5.68l-.02.02c-1.52,1.01-2.71,2.06-3.52,3.21-.83,1.15-1.29,2.41-1.29,3.7s.42,2.45,1.15,3.6c.73,1.13,1.78,2.22,3.15,3.31,5.23,4.16,10.75,7.86,16.47,11.18,4.95,2.85,10.15,4.97,15.46,6.75,5.3,1.78,10.71,3.23,16.07,4.69,22.82,6.23,45.9,11.64,69.9,11.64h.04c1.41.06,2.83.08,4.24.08,8.93,0,17.71-1.21,26.32-3.94,3.54-1.11,6.23-2.39,8.15-3.96,1.88-1.56,2.97-3.52,2.97-5.72,0-1.64-.57-3.33-1.6-5.07ZM239.41,172.36c-1.56,1.29-4.04,2.51-7.44,3.56-8.37,2.65-16.94,3.84-25.67,3.84-1.39,0-2.79-.02-4.18-.08h-.06c-23.69,0-46.59-5.32-69.37-11.56-10.75-2.93-21.47-5.72-31.03-11.24-5.64-3.27-11.06-6.93-16.19-11h-.02c-1.23-.97-2.12-1.9-2.67-2.79-.57-.87-.81-1.68-.81-2.43,0-.79.26-1.58.87-2.45.63-.85,1.6-1.76,2.97-2.67h.02c3.94-2.53,8.67-4.49,13.26-5.38,10.83-2.06,21.67-3.09,32.52-3.09,12.73,0,25.43,1.43,38.08,4.26,12.11,2.73,24.11,6.21,35.94,9.9,9.48,2.93,17.91,8.15,25.91,14.15v.02c1.56,1.13,3.09,2.47,4.55,3.82,1.9,1.86,3.31,3.58,4.22,5.11.91,1.52,1.31,2.85,1.31,3.98-.02,1.48-.65,2.75-2.2,4.08ZM242.15,163.21c-1.05-1.76-2.57-3.58-4.55-5.54v-.02h-.02c-1.5-1.39-3.07-2.77-4.75-4h-.02c-8.09-6.08-16.72-11.46-26.54-14.49-11.86-3.68-23.91-7.18-36.1-9.94-12.81-2.89-25.67-4.31-38.55-4.31-10.96,0-21.97,1.05-32.93,3.13-4.89.95-9.86,2.99-14.01,5.68l-.02.02c-1.52,1.01-2.71,2.06-3.52,3.21-.83,1.15-1.29,2.41-1.29,3.7s.42,2.45,1.15,3.6c.73,1.13,1.78,2.22,3.15,3.31,5.23,4.16,10.75,7.86,16.47,11.18,4.95,2.85,10.15,4.97,15.46,6.75,5.3,1.78,10.71,3.23,16.07,4.69,22.82,6.23,45.9,11.64,69.9,11.64h.04c1.41.06,2.83.08,4.24.08,8.93,0,17.71-1.21,26.32-3.94,3.54-1.11,6.23-2.39,8.15-3.96,1.88-1.56,2.97-3.52,2.97-5.72,0-1.64-.57-3.33-1.6-5.07ZM239.41,172.36c-1.56,1.29-4.04,2.51-7.44,3.56-8.37,2.65-16.94,3.84-25.67,3.84-1.39,0-2.79-.02-4.18-.08h-.06c-23.69,0-46.59-5.32-69.37-11.56-10.75-2.93-21.47-5.72-31.03-11.24-5.64-3.27-11.06-6.93-16.19-11h-.02c-1.23-.97-2.12-1.9-2.67-2.79-.57-.87-.81-1.68-.81-2.43,0-.79.26-1.58.87-2.45.63-.85,1.6-1.76,2.97-2.67h.02c3.94-2.53,8.67-4.49,13.26-5.38,10.83-2.06,21.67-3.09,32.52-3.09,12.73,0,25.43,1.43,38.08,4.26,12.11,2.73,24.11,6.21,35.94,9.9,9.48,2.93,17.91,8.15,25.91,14.15v.02c1.56,1.13,3.09,2.47,4.55,3.82,1.9,1.86,3.31,3.58,4.22,5.11.91,1.52,1.31,2.85,1.31,3.98-.02,1.48-.65,2.75-2.2,4.08ZM242.15,163.21c-1.05-1.76-2.57-3.58-4.55-5.54v-.02h-.02c-1.5-1.39-3.07-2.77-4.75-4h-.02c-8.09-6.08-16.72-11.46-26.54-14.49-11.86-3.68-23.91-7.18-36.1-9.94-12.81-2.89-25.67-4.31-38.55-4.31-10.96,0-21.97,1.05-32.93,3.13-4.89.95-9.86,2.99-14.01,5.68l-.02.02c-1.52,1.01-2.71,2.06-3.52,3.21-.83,1.15-1.29,2.41-1.29,3.7s.42,2.45,1.15,3.6c.73,1.13,1.78,2.22,3.15,3.31,5.23,4.16,10.75,7.86,16.47,11.18,4.95,2.85,10.15,4.97,15.46,6.75,5.3,1.78,10.71,3.23,16.07,4.69,22.82,6.23,45.9,11.64,69.9,11.64h.04c1.41.06,2.83.08,4.24.08,8.93,0,17.71-1.21,26.32-3.94,3.54-1.11,6.23-2.39,8.15-3.96,1.88-1.56,2.97-3.52,2.97-5.72,0-1.64-.57-3.33-1.6-5.07ZM239.41,172.36c-1.56,1.29-4.04,2.51-7.44,3.56-8.37,2.65-16.94,3.84-25.67,3.84-1.39,0-2.79-.02-4.18-.08h-.06c-23.69,0-46.59-5.32-69.37-11.56-10.75-2.93-21.47-5.72-31.03-11.24-5.64-3.27-11.06-6.93-16.19-11h-.02c-1.23-.97-2.12-1.9-2.67-2.79-.57-.87-.81-1.68-.81-2.43,0-.79.26-1.58.87-2.45.63-.85,1.6-1.76,2.97-2.67h.02c3.94-2.53,8.67-4.49,13.26-5.38,10.83-2.06,21.67-3.09,32.52-3.09,12.73,0,25.43,1.43,38.08,4.26,12.11,2.73,24.11,6.21,35.94,9.9,9.48,2.93,17.91,8.15,25.91,14.15v.02c1.56,1.13,3.09,2.47,4.55,3.82,1.9,1.86,3.31,3.58,4.22,5.11.91,1.52,1.31,2.85,1.31,3.98-.02,1.48-.65,2.75-2.2,4.08ZM242.15,163.21c-1.05-1.76-2.57-3.58-4.55-5.54v-.02h-.02c-1.5-1.39-3.07-2.77-4.75-4h-.02c-8.09-6.08-16.72-11.46-26.54-14.49-11.86-3.68-23.91-7.18-36.1-9.94-12.81-2.89-25.67-4.31-38.55-4.31-10.96,0-21.97,1.05-32.93,3.13-4.89.95-9.86,2.99-14.01,5.68l-.02.02c-1.52,1.01-2.71,2.06-3.52,3.21-.83,1.15-1.29,2.41-1.29,3.7s.42,2.45,1.15,3.6c.73,1.13,1.78,2.22,3.15,3.31,5.23,4.16,10.75,7.86,16.47,11.18,4.95,2.85,10.15,4.97,15.46,6.75,5.3,1.78,10.71,3.23,16.07,4.69,22.82,6.23,45.9,11.64,69.9,11.64h.04c1.41.06,2.83.08,4.24.08,8.93,0,17.71-1.21,26.32-3.94,3.54-1.11,6.23-2.39,8.15-3.96,1.88-1.56,2.97-3.52,2.97-5.72,0-1.64-.57-3.33-1.6-5.07ZM239.41,172.36c-1.56,1.29-4.04,2.51-7.44,3.56-8.37,2.65-16.94,3.84-25.67,3.84-1.39,0-2.79-.02-4.18-.08h-.06c-23.69,0-46.59-5.32-69.37-11.56-10.75-2.93-21.47-5.72-31.03-11.24-5.64-3.27-11.06-6.93-16.19-11h-.02c-1.23-.97-2.12-1.9-2.67-2.79-.57-.87-.81-1.68-.81-2.43,0-.79.26-1.58.87-2.45.63-.85,1.6-1.76,2.97-2.67h.02c3.94-2.53,8.67-4.49,13.26-5.38,10.83-2.06,21.67-3.09,32.52-3.09,12.73,0,25.43,1.43,38.08,4.26,12.11,2.73,24.11,6.21,35.94,9.9,9.48,2.93,17.91,8.15,25.91,14.15v.02c1.56,1.13,3.09,2.47,4.55,3.82,1.9,1.86,3.31,3.58,4.22,5.11.91,1.52,1.31,2.85,1.31,3.98-.02,1.48-.65,2.75-2.2,4.08ZM242.15,163.21c-1.05-1.76-2.57-3.58-4.55-5.54v-.02h-.02c-1.5-1.39-3.07-2.77-4.75-4h-.02c-8.09-6.08-16.72-11.46-26.54-14.49-11.86-3.68-23.91-7.18-36.1-9.94-12.81-2.89-25.67-4.31-38.55-4.31-10.96,0-21.97,1.05-32.93,3.13-4.89.95-9.86,2.99-14.01,5.68l-.02.02c-1.52,1.01-2.71,2.06-3.52,3.21-.83,1.15-1.29,2.41-1.29,3.7s.42,2.45,1.15,3.6c.73,1.13,1.78,2.22,3.15,3.31,5.23,4.16,10.75,7.86,16.47,11.18,4.95,2.85,10.15,4.97,15.46,6.75,5.3,1.78,10.71,3.23,16.07,4.69,22.82,6.23,45.9,11.64,69.9,11.64h.04c1.41.06,2.83.08,4.24.08,8.93,0,17.71-1.21,26.32-3.94,3.54-1.11,6.23-2.39,8.15-3.96,1.88-1.56,2.97-3.52,2.97-5.72,0-1.64-.57-3.33-1.6-5.07ZM239.41,172.36c-1.56,1.29-4.04,2.51-7.44,3.56-8.37,2.65-16.94,3.84-25.67,3.84-1.39,0-2.79-.02-4.18-.08h-.06c-23.69,0-46.59-5.32-69.37-11.56-10.75-2.93-21.47-5.72-31.03-11.24-5.64-3.27-11.06-6.93-16.19-11h-.02c-1.23-.97-2.12-1.9-2.67-2.79-.57-.87-.81-1.68-.81-2.43,0-.79.26-1.58.87-2.45.63-.85,1.6-1.76,2.97-2.67h.02c3.94-2.53,8.67-4.49,13.26-5.38,10.83-2.06,21.67-3.09,32.52-3.09,12.73,0,25.43,1.43,38.08,4.26,12.11,2.73,24.11,6.21,35.94,9.9,9.48,2.93,17.91,8.15,25.91,14.15v.02c1.56,1.13,3.09,2.47,4.55,3.82,1.9,1.86,3.31,3.58,4.22,5.11.91,1.52,1.31,2.85,1.31,3.98-.02,1.48-.65,2.75-2.2,4.08ZM242.15,163.21c-1.05-1.76-2.57-3.58-4.55-5.54v-.02h-.02c-1.5-1.39-3.07-2.77-4.75-4h-.02c-8.09-6.08-16.72-11.46-26.54-14.49-11.86-3.68-23.91-7.18-36.1-9.94-12.81-2.89-25.67-4.31-38.55-4.31-10.96,0-21.97,1.05-32.93,3.13-4.89.95-9.86,2.99-14.01,5.68l-.02.02c-1.52,1.01-2.71,2.06-3.52,3.21-.83,1.15-1.29,2.41-1.29,3.7s.42,2.45,1.15,3.6c.73,1.13,1.78,2.22,3.15,3.31,5.23,4.16,10.75,7.86,16.47,11.18,4.95,2.85,10.15,4.97,15.46,6.75,5.3,1.78,10.71,3.23,16.07,4.69,22.82,6.23,45.9,11.64,69.9,11.64h.04c1.41.06,2.83.08,4.24.08,8.93,0,17.71-1.21,26.32-3.94,3.54-1.11,6.23-2.39,8.15-3.96,1.88-1.56,2.97-3.52,2.97-5.72,0-1.64-.57-3.33-1.6-5.07ZM239.41,172.36c-1.56,1.29-4.04,2.51-7.44,3.56-8.37,2.65-16.94,3.84-25.67,3.84-1.39,0-2.79-.02-4.18-.08h-.06c-23.69,0-46.59-5.32-69.37-11.56-10.75-2.93-21.47-5.72-31.03-11.24-5.64-3.27-11.06-6.93-16.19-11h-.02c-1.23-.97-2.12-1.9-2.67-2.79-.57-.87-.81-1.68-.81-2.43,0-.79.26-1.58.87-2.45.63-.85,1.6-1.76,2.97-2.67h.02c3.94-2.53,8.67-4.49,13.26-5.38,10.83-2.06,21.67-3.09,32.52-3.09,12.73,0,25.43,1.43,38.08,4.26,12.11,2.73,24.11,6.21,35.94,9.9,9.48,2.93,17.91,8.15,25.91,14.15v.02c1.56,1.13,3.09,2.47,4.55,3.82,1.9,1.86,3.31,3.58,4.22,5.11.91,1.52,1.31,2.85,1.31,3.98-.02,1.48-.65,2.75-2.2,4.08ZM242.15,163.21c-1.05-1.76-2.57-3.58-4.55-5.54v-.02h-.02c-1.5-1.39-3.07-2.77-4.75-4h-.02c-8.09-6.08-16.72-11.46-26.54-14.49-11.86-3.68-23.91-7.18-36.1-9.94-12.81-2.89-25.67-4.31-38.55-4.31-10.96,0-21.97,1.05-32.93,3.13-4.89.95-9.86,2.99-14.01,5.68l-.02.02c-1.52,1.01-2.71,2.06-3.52,3.21-.83,1.15-1.29,2.41-1.29,3.7s.42,2.45,1.15,3.6c.73,1.13,1.78,2.22,3.15,3.31,5.23,4.16,10.75,7.86,16.47,11.18,4.95,2.85,10.15,4.97,15.46,6.75,5.3,1.78,10.71,3.23,16.07,4.69,22.82,6.23,45.9,11.64,69.9,11.64h.04c1.41.06,2.83.08,4.24.08,8.93,0,17.71-1.21,26.32-3.94,3.54-1.11,6.23-2.39,8.15-3.96,1.88-1.56,2.97-3.52,2.97-5.72,0-1.64-.57-3.33-1.6-5.07ZM239.41,172.36c-1.56,1.29-4.04,2.51-7.44,3.56-8.37,2.65-16.94,3.84-25.67,3.84-1.39,0-2.79-.02-4.18-.08h-.06c-23.69,0-46.59-5.32-69.37-11.56-10.75-2.93-21.47-5.72-31.03-11.24-5.64-3.27-11.06-6.93-16.19-11h-.02c-1.23-.97-2.12-1.9-2.67-2.79-.57-.87-.81-1.68-.81-2.43,0-.79.26-1.58.87-2.45.63-.85,1.6-1.76,2.97-2.67h.02c3.94-2.53,8.67-4.49,13.26-5.38,10.83-2.06,21.67-3.09,32.52-3.09,12.73,0,25.43,1.43,38.08,4.26,12.11,2.73,24.11,6.21,35.94,9.9,9.48,2.93,17.91,8.15,25.91,14.15v.02c1.56,1.13,3.09,2.47,4.55,3.82,1.9,1.86,3.31,3.58,4.22,5.11.91,1.52,1.31,2.85,1.31,3.98-.02,1.48-.65,2.75-2.2,4.08ZM242.15,163.21c-1.05-1.76-2.57-3.58-4.55-5.54v-.02h-.02c-1.5-1.39-3.07-2.77-4.75-4h-.02c-8.09-6.08-16.72-11.46-26.54-14.49-11.86-3.68-23.91-7.18-36.1-9.94-12.81-2.89-25.67-4.31-38.55-4.31-10.96,0-21.97,1.05-32.93,3.13-4.89.95-9.86,2.99-14.01,5.68l-.02.02c-1.52,1.01-2.71,2.06-3.52,3.21-.83,1.15-1.29,2.41-1.29,3.7s.42,2.45,1.15,3.6c.73,1.13,1.78,2.22,3.15,3.31,5.23,4.16,10.75,7.86,16.47,11.18,4.95,2.85,10.15,4.97,15.46,6.75,5.3,1.78,10.71,3.23,16.07,4.69,22.82,6.23,45.9,11.64,69.9,11.64h.04c1.41.06,2.83.08,4.24.08,8.93,0,17.71-1.21,26.32-3.94,3.54-1.11,6.23-2.39,8.15-3.96,1.88-1.56,2.97-3.52,2.97-5.72,0-1.64-.57-3.33-1.6-5.07ZM239.41,172.36c-1.56,1.29-4.04,2.51-7.44,3.56-8.37,2.65-16.94,3.84-25.67,3.84-1.39,0-2.79-.02-4.18-.08h-.06c-23.69,0-46.59-5.32-69.37-11.56-10.75-2.93-21.47-5.72-31.03-11.24-5.64-3.27-11.06-6.93-16.19-11h-.02c-1.23-.97-2.12-1.9-2.67-2.79-.57-.87-.81-1.68-.81-2.43,0-.79.26-1.58.87-2.45.63-.85,1.6-1.76,2.97-2.67h.02c3.94-2.53,8.67-4.49,13.26-5.38,10.83-2.06,21.67-3.09,32.52-3.09,12.73,0,25.43,1.43,38.08,4.26,12.11,2.73,24.11,6.21,35.94,9.9,9.48,2.93,17.91,8.15,25.91,14.15v.02c1.56,1.13,3.09,2.47,4.55,3.82,1.9,1.86,3.31,3.58,4.22,5.11.91,1.52,1.31,2.85,1.31,3.98-.02,1.48-.65,2.75-2.2,4.08ZM242.15,163.21c-1.05-1.76-2.57-3.58-4.55-5.54v-.02h-.02c-1.5-1.39-3.07-2.77-4.75-4h-.02c-8.09-6.08-16.72-11.46-26.54-14.49-11.86-3.68-23.91-7.18-36.1-9.94-12.81-2.89-25.67-4.31-38.55-4.31-10.96,0-21.97,1.05-32.93,3.13-4.89.95-9.86,2.99-14.01,5.68l-.02.02c-1.52,1.01-2.71,2.06-3.52,3.21-.83,1.15-1.29,2.41-1.29,3.7s.42,2.45,1.15,3.6c.73,1.13,1.78,2.22,3.15,3.31,5.23,4.16,10.75,7.86,16.47,11.18,4.95,2.85,10.15,4.97,15.46,6.75,5.3,1.78,10.71,3.23,16.07,4.69,22.82,6.23,45.9,11.64,69.9,11.64h.04c1.41.06,2.83.08,4.24.08,8.93,0,17.71-1.21,26.32-3.94,3.54-1.11,6.23-2.39,8.15-3.96,1.88-1.56,2.97-3.52,2.97-5.72,0-1.64-.57-3.33-1.6-5.07ZM239.41,172.36c-1.56,1.29-4.04,2.51-7.44,3.56-8.37,2.65-16.94,3.84-25.67,3.84-1.39,0-2.79-.02-4.18-.08h-.06c-23.69,0-46.59-5.32-69.37-11.56-10.75-2.93-21.47-5.72-31.03-11.24-5.64-3.27-11.06-6.93-16.19-11h-.02c-1.23-.97-2.12-1.9-2.67-2.79-.57-.87-.81-1.68-.81-2.43,0-.79.26-1.58.87-2.45.63-.85,1.6-1.76,2.97-2.67h.02c3.94-2.53,8.67-4.49,13.26-5.38,10.83-2.06,21.67-3.09,32.52-3.09,12.73,0,25.43,1.43,38.08,4.26,12.11,2.73,24.11,6.21,35.94,9.9,9.48,2.93,17.91,8.15,25.91,14.15v.02c1.56,1.13,3.09,2.47,4.55,3.82,1.9,1.86,3.31,3.58,4.22,5.11.91,1.52,1.31,2.85,1.31,3.98-.02,1.48-.65,2.75-2.2,4.08ZM242.15,163.21c-1.05-1.76-2.57-3.58-4.55-5.54v-.02h-.02c-1.5-1.39-3.07-2.77-4.75-4h-.02c-8.09-6.08-16.72-11.46-26.54-14.49-11.86-3.68-23.91-7.18-36.1-9.94-12.81-2.89-25.67-4.31-38.55-4.31-10.96,0-21.97,1.05-32.93,3.13-4.89.95-9.86,2.99-14.01,5.68l-.02.02c-1.52,1.01-2.71,2.06-3.52,3.21-.83,1.15-1.29,2.41-1.29,3.7s.42,2.45,1.15,3.6c.73,1.13,1.78,2.22,3.15,3.31,5.23,4.16,10.75,7.86,16.47,11.18,4.95,2.85,10.15,4.97,15.46,6.75,5.3,1.78,10.71,3.23,16.07,4.69,22.82,6.23,45.9,11.64,69.9,11.64h.04c1.41.06,2.83.08,4.24.08,8.93,0,17.71-1.21,26.32-3.94,3.54-1.11,6.23-2.39,8.15-3.96,1.88-1.56,2.97-3.52,2.97-5.72,0-1.64-.57-3.33-1.6-5.07ZM239.41,172.36c-1.56,1.29-4.04,2.51-7.44,3.56-8.37,2.65-16.94,3.84-25.67,3.84-1.39,0-2.79-.02-4.18-.08h-.06c-23.69,0-46.59-5.32-69.37-11.56-10.75-2.93-21.47-5.72-31.03-11.24-5.64-3.27-11.06-6.93-16.19-11h-.02c-1.23-.97-2.12-1.9-2.67-2.79-.57-.87-.81-1.68-.81-2.43,0-.79.26-1.58.87-2.45.63-.85,1.6-1.76,2.97-2.67h.02c3.94-2.53,8.67-4.49,13.26-5.38,10.83-2.06,21.67-3.09,32.52-3.09,12.73,0,25.43,1.43,38.08,4.26,12.11,2.73,24.11,6.21,35.94,9.9,9.48,2.93,17.91,8.15,25.91,14.15v.02c1.56,1.13,3.09,2.47,4.55,3.82,1.9,1.86,3.31,3.58,4.22,5.11.91,1.52,1.31,2.85,1.31,3.98-.02,1.48-.65,2.75-2.2,4.08ZM242.15,163.21c-1.05-1.76-2.57-3.58-4.55-5.54v-.02h-.02c-1.5-1.39-3.07-2.77-4.75-4h-.02c-8.09-6.08-16.72-11.46-26.54-14.49-11.86-3.68-23.91-7.18-36.1-9.94-12.81-2.89-25.67-4.31-38.55-4.31-10.96,0-21.97,1.05-32.93,3.13-4.89.95-9.86,2.99-14.01,5.68l-.02.02c-1.52,1.01-2.71,2.06-3.52,3.21-.83,1.15-1.29,2.41-1.29,3.7s.42,2.45,1.15,3.6c.73,1.13,1.78,2.22,3.15,3.31,5.23,4.16,10.75,7.86,16.47,11.18,4.95,2.85,10.15,4.97,15.46,6.75,5.3,1.78,10.71,3.23,16.07,4.69,22.82,6.23,45.9,11.64,69.9,11.64h.04c1.41.06,2.83.08,4.24.08,8.93,0,17.71-1.21,26.32-3.94,3.54-1.11,6.23-2.39,8.15-3.96,1.88-1.56,2.97-3.52,2.97-5.72,0-1.64-.57-3.33-1.6-5.07ZM239.41,172.36c-1.56,1.29-4.04,2.51-7.44,3.56-8.37,2.65-16.94,3.84-25.67,3.84-1.39,0-2.79-.02-4.18-.08h-.06c-23.69,0-46.59-5.32-69.37-11.56-10.75-2.93-21.47-5.72-31.03-11.24-5.64-3.27-11.06-6.93-16.19-11h-.02c-1.23-.97-2.12-1.9-2.67-2.79-.57-.87-.81-1.68-.81-2.43,0-.79.26-1.58.87-2.45.63-.85,1.6-1.76,2.97-2.67h.02c3.94-2.53,8.67-4.49,13.26-5.38,10.83-2.06,21.67-3.09,32.52-3.09,12.73,0,25.43,1.43,38.08,4.26,12.11,2.73,24.11,6.21,35.94,9.9,9.48,2.93,17.91,8.15,25.91,14.15v.02c1.56,1.13,3.09,2.47,4.55,3.82,1.9,1.86,3.31,3.58,4.22,5.11.91,1.52,1.31,2.85,1.31,3.98-.02,1.48-.65,2.75-2.2,4.08ZM242.15,163.21c-1.05-1.76-2.57-3.58-4.55-5.54v-.02h-.02c-1.5-1.39-3.07-2.77-4.75-4h-.02c-8.09-6.08-16.72-11.46-26.54-14.49-11.86-3.68-23.91-7.18-36.1-9.94-12.81-2.89-25.67-4.31-38.55-4.31-10.96,0-21.97,1.05-32.93,3.13-4.89.95-9.86,2.99-14.01,5.68l-.02.02c-1.52,1.01-2.71,2.06-3.52,3.21-.83,1.15-1.29,2.41-1.29,3.7s.42,2.45,1.15,3.6c.73,1.13,1.78,2.22,3.15,3.31,5.23,4.16,10.75,7.86,16.47,11.18,4.95,2.85,10.15,4.97,15.46,6.75,5.3,1.78,10.71,3.23,16.07,4.69,22.82,6.23,45.9,11.64,69.9,11.64h.04c1.41.06,2.83.08,4.24.08,8.93,0,17.71-1.21,26.32-3.94,3.54-1.11,6.23-2.39,8.15-3.96,1.88-1.56,2.97-3.52,2.97-5.72,0-1.64-.57-3.33-1.6-5.07ZM239.41,172.36c-1.56,1.29-4.04,2.51-7.44,3.56-8.37,2.65-16.94,3.84-25.67,3.84-1.39,0-2.79-.02-4.18-.08h-.06c-23.69,0-46.59-5.32-69.37-11.56-10.75-2.93-21.47-5.72-31.03-11.24-5.64-3.27-11.06-6.93-16.19-11h-.02c-1.23-.97-2.12-1.9-2.67-2.79-.57-.87-.81-1.68-.81-2.43,0-.79.26-1.58.87-2.45.63-.85,1.6-1.76,2.97-2.67h.02c3.94-2.53,8.67-4.49,13.26-5.38,10.83-2.06,21.67-3.09,32.52-3.09,12.73,0,25.43,1.43,38.08,4.26,12.11,2.73,24.11,6.21,35.94,9.9,9.48,2.93,17.91,8.15,25.91,14.15v.02c1.56,1.13,3.09,2.47,4.55,3.82,1.9,1.86,3.31,3.58,4.22,5.11.91,1.52,1.31,2.85,1.31,3.98-.02,1.48-.65,2.75-2.2,4.08ZM242.15,163.21c-1.05-1.76-2.57-3.58-4.55-5.54v-.02h-.02c-1.5-1.39-3.07-2.77-4.75-4h-.02c-8.09-6.08-16.72-11.46-26.54-14.49-11.86-3.68-23.91-7.18-36.1-9.94-12.81-2.89-25.67-4.31-38.55-4.31-10.96,0-21.97,1.05-32.93,3.13-4.89.95-9.86,2.99-14.01,5.68l-.02.02c-1.52,1.01-2.71,2.06-3.52,3.21-.83,1.15-1.29,2.41-1.29,3.7s.42,2.45,1.15,3.6c.73,1.13,1.78,2.22,3.15,3.31,5.23,4.16,10.75,7.86,16.47,11.18,4.95,2.85,10.15,4.97,15.46,6.75,5.3,1.78,10.71,3.23,16.07,4.69,22.82,6.23,45.9,11.64,69.9,11.64h.04c1.41.06,2.83.08,4.24.08,8.93,0,17.71-1.21,26.32-3.94,3.54-1.11,6.23-2.39,8.15-3.96,1.88-1.56,2.97-3.52,2.97-5.72,0-1.64-.57-3.33-1.6-5.07ZM239.41,172.36c-1.56,1.29-4.04,2.51-7.44,3.56-8.37,2.65-16.94,3.84-25.67,3.84-1.39,0-2.79-.02-4.18-.08h-.06c-23.69,0-46.59-5.32-69.37-11.56-10.75-2.93-21.47-5.72-31.03-11.24-5.64-3.27-11.06-6.93-16.19-11h-.02c-1.23-.97-2.12-1.9-2.67-2.79-.57-.87-.81-1.68-.81-2.43,0-.79.26-1.58.87-2.45.63-.85,1.6-1.76,2.97-2.67h.02c3.94-2.53,8.67-4.49,13.26-5.38,10.83-2.06,21.67-3.09,32.52-3.09,12.73,0,25.43,1.43,38.08,4.26,12.11,2.73,24.11,6.21,35.94,9.9,9.48,2.93,17.91,8.15,25.91,14.15v.02c1.56,1.13,3.09,2.47,4.55,3.82,1.9,1.86,3.31,3.58,4.22,5.11.91,1.52,1.31,2.85,1.31,3.98-.02,1.48-.65,2.75-2.2,4.08Z"/>
    <path class="st0" d="M242.58,181.8c-1.13,0-1.72-.06-2.2-.06-.26,0-.51.02-.81.12h-.04c-12.09,4.39-24.48,6.23-37.07,6.23-4.93,0-9.88-.28-14.86-.81-21.77-2.36-42.97-7.26-63.93-13.18-16.63-4.65-32.78-10.21-45.38-23.45l-1.21-1.27-.57,1.66c-.53,1.56-1.09,2.55-1.19,3.88v.02c-.81,9.96-1.94,19.99-2.06,30.02-.02.89-.02,1.76-.02,2.65,0,13.81,1.44,27.57,6.14,40.79,3.6,10.01,8.29,19.24,14.61,27.13,6.31,7.9,14.25,14.45,24.38,19.14h.02c11.52,5.3,23.45,8.19,36.14,8.19.89,0,1.8-.02,2.71-.06,27.85-.97,49.34-13.56,64.18-37.01,6.27-10.01,10.59-20.82,14.31-31.79.04-.08.06-.14.08-.22l.12-.4c1.92-5.68,3.68-11.36,5.48-17.06v-.02c1.37-4.2,1.48-8.65,2.22-13.3l.2-1.23h-1.25ZM239.37,195.67v.02c-1.74,5.52-3.46,11.06-5.3,16.55l-.91.24.47,1.03c-3.66,10.85-7.92,21.43-14.01,31.17-14.57,22.92-35.21,35.01-62.44,36.02-.89.02-1.78.04-2.65.04-12.35,0-23.97-2.81-35.25-8-9.82-4.53-17.5-10.87-23.63-18.53-6.14-7.68-10.71-16.68-14.27-26.54-2.28-6.45-3.78-13.04-4.71-19.73-.93-6.71-1.29-13.48-1.29-20.33,0-.87,0-1.74.02-2.61.12-9.92,1.25-19.91,2.06-29.91v-.02c.02-.42.2-.97.47-1.72,12.86,12.81,28.98,18.27,45.15,22.8,21.04,5.94,42.35,10.89,64.3,13.26,5.05.51,10.07.81,15.08.81,12.79,0,25.43-1.88,37.78-6.35h.14c.18,0,.49.02.97.04-.61,4.35-.81,8.29-1.98,11.76Z"/>
    <path class="st0" d="M261.5,204.64c0,.79-.08,1.64-.24,2.57-.73,4.91-3.11,9.08-6.77,11.97-3.66,2.89-8.57,4.51-14.37,4.51h-.18l-1.56-.02.59-1.46c2.79-6.97,5.28-13.26,7.98-19.4l.02-.02c.69-1.5,1.96-2.63,3.4-3.4,1.44-.77,3.11-1.19,4.71-1.19.89,0,1.76.12,2.55.42,1.23.42,2.26,1.15,2.91,2.2.67,1.05.95,2.34.95,3.82Z"/>
  </g>
  <path class="st0" d="M260.22,207.04c.69-4.24-.25-6.48-2.93-7.42-3.12-1.12-7.91.5-9.35,3.61-2.68,6.11-5.17,12.4-7.98,19.38,11.28.06,18.82-6.17,20.25-15.58Z"/>
  <path class="st0" d="M234.67,213.19c.08-.02.15-.04.23-.06,1.91-5.68,3.69-11.41,5.5-17.12,1.31-3.99,1.44-8.41,2.18-13.15-1.74,0-2.3-.12-2.68,0-17.01,6.17-34.58,7.35-52.41,5.48-21.87-2.37-43.12-7.29-64.12-13.21-16.64-4.67-33.03-10.28-45.86-23.74-.56,1.62-1.06,2.62-1.12,3.61-.81,9.97-1.93,20-2.06,29.97-.19,14.64,1.12,29.16,6.04,43.06,7.17,19.88,18.51,36.45,38.45,45.68,12.21,5.61,24.86,8.48,38.39,8.04,27.54-1,48.6-13.33,63.31-36.52,6.25-9.97,10.54-20.77,14.27-31.78-.04-.09-.08-.18-.12-.27ZM125.38,187.32c5.22.41,11.34,5.13,12.04,10.49.54,4.11.1,8.6-1.02,12.61-1.29,4.66-4.59,6.13-9.44,5.94-4.44-.17-6-3.14-7.53-6.68-2.4-5.56.06-9.31,4.33-12.61l-.56-1.22c-2.14.44-4.29.87-6.46,1.31-.8-6.25,2.9-10.3,8.64-9.84ZM174.46,244.1c-3.58,6.29-9.36,10.3-16.15,11.65-18.17,3.63-35.97-4-43.61-23.06-1.08-2.69-1.2-5.29.59-7.76,2.21-3.05,5.33-2.9,6.86.49.83,1.85,1.22,3.89,1.87,5.83,6.18,18.24,32.14,21.96,42.57,9.27.39-.48.8-.94,1.23-1.4,3.37-3.61,9.13.59,6.69,4.88-.02.03-.04.07-.06.1ZM190.24,216.32c-1.48,3.77-4.58,7.25-7.74,9.92-3.97,3.37-7.31,2.81-10.37-1.55-2.24-3.19-3.38-7.14-4.81-10.29,2.47-4.2,8.24-4.98,6.5-11.36-2.07,1.11-3.77,2.01-5.5,2.94-1.07-6.04,1.73-9.66,7.4-9.73,10.46-.14,18.36,10.32,14.53,20.07Z"/>
  <path class="st0" d="M276.17,186.41c0-.12-.06-.19-.12-.25-2.49-4.36-6.29-7.1-11.22-7.97l-1.12-.19c-3.61-.5-7.73,0-12.34,1.5-.62,4.11-1.31,8.41-2.12,13.46,1.87-.5,2.8-.56,3.55-.94,4.36-1.93,7.85-.93,10.9,1.75.56.56,1.18,1.18,1.75,1.87,4.36,5.17,4.92,11.03,2.31,17.2-1.12,2.68-2.49,5.05-4.05,7.17-4.86,6.54-11.9,10.28-20.81,11.53-6.79.94-7.54,1.75-9.35,10.41,6.73-1.43,13.15-2.49,19.44-4.05,4.11-1,7.6-2.55,10.72-4.61.37-.25.75-.5,1.12-.75,3.24-2.24,5.92-5.05,8.04-8.16.25-.25.5-.56.62-.87,5.42-7.66,7.35-17.45,6.23-26.55-.5-4.24-1.74-7.73-3.55-10.53Z"/>
  <path class="st0" d="M212.73,156.38c-14.21-12.34-66.68-21.94-86.87-15.7,27.92,13.83,56.15,19.25,86.87,15.7Z"/>
  <path class="st0" d="M84.8,146.72c5.17,4.11,10.66,7.79,16.33,11.09,9.72,5.61,20.56,8.41,31.28,11.34,22.81,6.23,45.8,11.59,69.67,11.59,10.28.44,20.38-.69,30.22-3.8,12.15-3.8,13.59-9.6,4.55-18.51-1.49-1.37-3.05-2.74-4.67-3.93-8.04-6.04-16.57-11.34-26.23-14.33-11.84-3.68-23.87-7.17-36.02-9.91-23.56-5.3-47.36-5.67-71.04-1.18-4.74.93-9.6,2.93-13.65,5.55-5.67,3.74-5.73,7.91-.44,12.09ZM93.96,135.44c2.18-1.06,4.61-1.99,7.04-2.24,12.21-1.31,24.49-2.43,36.64-3.55,19.38,1.43,38.08,4.42,56.58,9.84,10.47,3.18,20.44,7.54,29.85,13.34,3.18,1.99,6.36,4.49,8.72,7.42,5.48,6.29,3.8,11.47-4.11,13.65-2.99.94-6.23,1.19-9.35,1.68-15.45,2.06-30.97.75-46.24-1.62-21.12-3.24-41.87-8.91-61.88-16.58-6.67-2.55-12.96-6.54-18.82-10.78-5.67-4.11-4.86-8.16,1.56-11.15Z"/>
</svg>