<?xml version="1.0" encoding="UTF-8"?>
<svg id="Layer_1" xmlns="http://www.w3.org/2000/svg" version="1.1" viewBox="0 0 464.88 172.6">
  <!-- Generator: Adobe Illustrator 30.1.0, SVG Export Plug-In . SVG Version: 2.1.1 Build 136)  -->
  <defs>
    <style>
      .st0 {
        fill: #fff;
      }
    </style>
  </defs>
  <path class="st0" d="M222.35,95.12c.19,1.26.6,2.49.93,3.72.09.34.31.62.75.51.42-.11.51-.41.48-.79-.02-.34-.05-.68-.07-1.02-.2-2.66.56-5.01,2.46-6.9.81-.8,1.8-1.44,2.76-2.08,1.2-.81,2.51-1.49,3.67-2.35,4.36-3.22,4.82-8.82,1.27-13.69-.29-.4-.66-.54-1.14.04.1.22.18.42.27.61,1.87,3.82,1.17,6.91-2.23,9.49-.95.72-2.03,1.28-2.98,2.01-1.24.97-2.52,1.94-3.59,3.09-1.9,2.05-3.04,4.48-2.6,7.36h.02Z"/>
  <path class="st0" d="M218.24,86.49c.07-.25.07-.64-.08-.81-.15-.17-.55-.24-.8-.18-.32.07-.61.29-.88.49-1.46,1.1-2.35,2.58-2.77,4.35-.77,3.49.98,6.2,2.8,8.87.08.12.45.2.54.12.16-.13.33-.43.28-.61-.12-.49-.32-.97-.53-1.44-1.57-3.53-1.39-6.89.95-10.05.18-.24.4-.48.48-.75h.01Z"/>
  <path class="st0" d="M282.48,91.46c-1.83-2.75-4.54-4.99-8.14-6.68-3.57-1.71-7.65-2.57-12.19-2.57h-17.83v3.56c.9,0,1.41.12,1.55.35.16.23.23.95.23,2.18v27.11c-.55-.08-1.1-.12-1.66-.12h-.25c-.25,0-.9.02-1.23.01-.22-3.88-2.93-5.97-5.48-7.62-1.15-.74-2.36-1.39-3.64-1.93-7.79-3.2-15.39-4.97-23.21-5.42-4.59-.24-8.59.04-12.2.85-5.44,1.18-7.61,3.59-8.28,9.2,0,.07,0,.14-.02.22,0,.05,0,.12-.02.18-.6,5.33-.6,10.56.02,15.54.77,6.08,2.38,10.38,5.21,13.92,4.91,6.18,11.57,9.31,19.79,9.31h.07c7.49-.02,13.62-2.74,18.19-8.08.36-.43.7-.88,1.02-1.32.32-.43.65-.88.99-1.29.44-.48.77-.72.99-.72,2.43,0,5.26-.49,7.9-1.55.61-.24,1.22-.51,1.8-.82v3.25c0,.95-.02,1.62-.03,2.01-.04.37-.09.81-.2,1.32-.09.49-.26.85-.51,1.04-.26.21-.6.32-1.04.32v3.54h19.24v-3.54c-.65-.04-1.11-.22-1.41-.55-.41-.44-.62-1.97-.62-4.6v-10.08c4.6.09,8.7-.69,12.37-2.34,3.65-1.65,6.42-3.84,8.3-6.57,1.88-2.73,3.27-5.76,4.18-9.08.92-3.31.95-6.62.12-9.92-.85-3.31-2.18-6.36-4.02-9.11h0ZM252.22,128.69c-.36.95-.88,1.87-1.53,2.71-1.21,1.57-2.81,2.82-4.6,3.77-3.08,1.66-6.7,2.43-9.7,2.43-.5,0-1,.48-1.39.91-.36.43-.69.88-1.02,1.32-.32.43-.65.88-.99,1.29-4.47,5.22-10.46,7.88-17.79,7.9h-.07c-8.05,0-14.57-3.06-19.38-9.11-2.76-3.47-4.33-7.68-5.1-13.66-.61-4.94-.62-10.12-.02-15.41,0-.07.02-.14.02-.21,0-.06,0-.12.02-.18.65-5.4,2.63-7.61,7.87-8.75,2.75-.62,5.71-.93,9.01-.93.98,0,2,.02,3.05.08,7.76.45,15.3,2.21,23.03,5.38,1.24.53,2.44,1.17,3.55,1.89,2.6,1.69,5.14,3.66,5.25,7.43v.11l.08.08c.07.07.63.09,1.68.08h.24c.56,0,1.12.04,1.66.12,1.59.24,3.08.83,4.17,1.67,1.59,1.21,1.88,3.25,2.16,5.22l.05.36c.24,1.63.43,3.73-.25,5.49h0ZM271.03,115.14c-1.78,6.5-4.95,9.55-9.5,9.16v-35.93c0-1.08.01-1.75.07-1.99,4.3-.39,7.4,2.68,9.29,9.22,1.88,6.52,1.94,13.04.14,19.54h0Z"/>
  <path class="st0" d="M249.83,119.86c0-.06-.05-.1-.07-.13-.74-1.29-1.9-2.11-3.35-2.37l-.31-.05h0c-1.06-.15-2.28,0-3.62.44l-.16.05-.02.16c-.18,1.17-.37,2.39-.6,3.82l-.06.4.39-.1c.21-.06.37-.09.51-.12.23-.05.39-.08.53-.16,1.05-.47,1.94-.32,2.81.44.07.07.15.15.23.23.08.09.17.18.24.28,1.14,1.35,1.34,2.9.61,4.62-.23.56-.52,1.1-.86,1.6-.08.13-.17.26-.26.38-1.3,1.76-3.23,2.82-5.74,3.17-2.05.28-2.34.61-2.88,3.17l-.08.4.4-.08c.71-.16,1.41-.29,2.1-.43,1.18-.23,2.3-.45,3.43-.73,1.12-.27,2.11-.69,3.03-1.28.03-.02.06-.04.1-.06l.32-.22c.91-.63,1.7-1.43,2.32-2.35.1-.1.18-.21.22-.31,1.49-2.11,2.14-4.92,1.8-7.7-.14-1.18-.48-2.21-1.02-3.06h0Z"/>
  <path class="st0" d="M238.91,130.51h.44c3.25,0,5.53-1.78,5.97-4.65.14-.83.18-1.99-1-2.4-1.06-.39-2.54.2-2.98,1.17h0c-.67,1.52-1.3,3.1-1.97,4.77l-.45,1.11h-.01Z"/>
  <path class="st0" d="M195.04,108.89c1.41,1.12,2.99,2.19,4.67,3.17,2.66,1.53,5.63,2.34,8.51,3.13l.45.12c7.25,1.98,13.41,3.3,19.86,3.3.4.02.8.03,1.19.03,2.63,0,5.14-.38,7.49-1.12,1.84-.57,2.85-1.32,3.08-2.28.23-.95-.32-2.07-1.69-3.42-.39-.36-.86-.77-1.35-1.14-2.75-2.06-5.14-3.37-7.54-4.11-2.78-.86-6.45-1.96-10.25-2.82-6.7-1.51-13.53-1.62-20.3-.34-1.37.27-2.78.84-3.97,1.61h0c-.87.57-1.32,1.2-1.35,1.87-.03.67.38,1.34,1.2,2h0ZM197.81,105.48c.62-.3,1.31-.57,2-.64,3.47-.37,6.96-.7,10.41-1.01,5.51.41,10.82,1.26,16.08,2.8,2.98.9,5.81,2.14,8.48,3.79.91.57,1.81,1.27,2.48,2.1,1.56,1.79,1.08,3.26-1.17,3.88-.85.26-1.77.33-2.66.47-4.39.59-8.8.22-13.14-.46-6-.92-11.9-2.53-17.58-4.71-1.89-.72-3.68-1.86-5.35-3.06-1.61-1.17-1.38-2.32.44-3.17h.01Z"/>
  <path class="st0" d="M238.12,127.63h0c.42-1.25.83-2.53,1.21-3.76l.35-1.1c.26-.8.36-1.63.46-2.52.05-.41.1-.83.17-1.26l.05-.3h-.31c-.2,0-.35,0-.46-.01-.17,0-.28,0-.39.03-4.45,1.62-9.29,2.12-14.78,1.54-5.41-.59-11.19-1.78-18.18-3.74-4.52-1.27-9.25-2.83-12.91-6.68l-.3-.31-.14.41c-.04.13-.08.24-.12.34-.11.29-.19.51-.21.75-.05.67-.11,1.34-.17,2.01-.19,2.14-.39,4.35-.41,6.53-.06,4.9.49,8.81,1.73,12.33,2.33,6.47,5.95,10.76,11.06,13.13,3.39,1.56,6.76,2.33,10.25,2.33.26,0,.52,0,.78,0,7.84-.28,13.96-3.82,18.2-10.5h0c1.93-3.09,3.2-6.48,4.08-9.09l.04-.1v-.02ZM206.74,120.22c1.48.12,3.23,1.46,3.42,2.98.15,1.17.03,2.44-.29,3.58-.37,1.33-1.3,1.74-2.68,1.69-1.26-.05-1.7-.89-2.14-1.9-.7-1.62.06-2.7,1.33-3.66l-.27-.27c-.61.12-1.21.24-1.82.37-.23-1.78.82-2.93,2.45-2.8h0ZM220.68,136.35c-1.02,1.79-2.66,2.93-4.59,3.31-5.16,1.03-10.22-1.14-12.39-6.55-.31-.76-.34-1.5.17-2.21.63-.87,1.51-.82,1.95.14.23.52.35,1.11.53,1.65,1.75,5.18,9.13,6.24,12.1,2.63.12-.14.24-.28.37-.42.95-1.01,2.56.21,1.88,1.41,0,0,0,.02-.02.03h0ZM225.17,128.46c-.42,1.07-1.3,2.06-2.2,2.82-1.13.95-2.08.8-2.95-.44-.64-.91-.96-2.03-1.37-2.92.7-1.19,2.34-1.41,1.85-3.23-.59.31-1.07.57-1.57.84-.3-1.72.49-2.75,2.11-2.77,2.97-.04,5.21,2.93,4.13,5.7h0Z"/>
  <path class="st0" d="M231.56,111.43c-4.04-3.5-18.95-6.23-24.69-4.46,7.94,3.93,15.95,5.47,24.69,4.46Z"/>
  <path class="st0" d="M170.7,66.22c.22.21,1.02.19,1.17,0,.27-.35.47-1.03.29-1.38-.47-.96-1.11-1.84-1.75-2.7-4.87-6.49-6.09-13.45-2.78-21.01.25-.57.59-1.17.62-1.76.03-.55-.16-1.34-.54-1.61-.39-.28-1.23-.24-1.71,0-.61.3-1.12.88-1.57,1.43-2.46,2.95-3.59,6.38-3.63,10.21.07,7.51,4.92,12.23,9.91,16.84v-.02Z"/>
  <path class="st0" d="M54.04,151.71v-71.1c6.06.99,10.84,1.49,14.36,1.49,7.2,0,12.94-1.91,17.23-5.73s6.48-8.18,6.58-13.1c.05-4.12-1.46-7.69-4.53-10.72-3.07-3.03-7.46-4.54-13.18-4.54-3.88,0-7.29,1.25-10.23,3.74-2.94,2.5-4.37,5.61-4.27,9.34.05,1.84.5,3.26,1.36,4.25s1.85,1.5,2.96,1.53c1.11.02,2.24-.33,3.36-1.05,1.13-.73,1.93-1.76,2.42-3.09-1.04-.53-1.61-1.65-1.71-3.34-.05-1.65.44-2.96,1.45-3.94,1.02-.98,2.24-1.47,3.67-1.47,1.7.05,3.17.79,4.43,2.22s1.89,3.49,1.89,6.18c0,2.28-.42,4.42-1.25,6.43-.84,2.01-2.25,3.77-4.24,5.29-1.99,1.51-4.42,2.32-7.31,2.42-1.89.05-7.49-.61-16.79-1.98-9.31-1.37-17.11-2.05-23.41-2.05-5.21.02-9.71,1.1-13.49,3.24-5.06,2.84-8.24,6.98-9.52,12.43-1.21,5.04-.53,9.57,2.04,13.6,2.86,4.48,7.17,6.72,12.94,6.72,4.17,0,7.73-1.16,10.69-3.47,2.96-2.31,4.39-5.48,4.29-9.5-.05-1.82-.51-3.22-1.38-4.22-.87-.99-1.87-1.5-2.98-1.53-1.12-.02-2.24.32-3.36,1.04-1.13.72-1.93,1.74-2.42,3.07.95.51,1.47,1.45,1.56,2.84.05,1.19-.34,2.14-1.16,2.87s-1.85,1.09-3.09,1.09c-.39,0-.78-.05-1.16-.14-2.28-.51-3.84-2.18-4.69-5.02-1.04-3.47-.55-6.83,1.49-10.11,2.91-4.77,7.98-7.28,15.23-7.52,1.91-.05,4.13.07,6.65.36v73.94c0,.9,0,1.54-.04,1.93-.02.39-.09.84-.2,1.36s-.29.87-.53,1.05c-.24.18-.56.27-.95.27v3.64h19.27v-3.64c-.65-.02-1.13-.21-1.42-.55-.39-.44-.58-1.94-.58-4.51l.02-.02Z"/>
  <path class="st0" d="M342.74,159.89c-7.59.05-13.81-2.9-18.68-8.83-4.87-5.94-7.69-13.16-8.45-21.66-.76-8.51-.38-17.02,1.16-25.54s4.91-15.76,10.12-21.74c5.21-5.97,11.39-8.98,18.54-9.03,1.79,0,3.47.2,5.03.6s2.96.98,4.2,1.75c1.24.76,2.1,1.81,2.6,3.14s.53,2.85.09,4.54l5.42,1.64,3.71-13.6-4.51-1.89c-.65.65-1.1.98-1.34.98-.95,0-3.19-.63-6.74-1.89s-6.96-1.91-10.23-1.96c-5.67-.07-10.97.91-15.88,2.94-9.33,3.83-16.58,10.83-21.74,21.01-5.02,9.89-7.17,20.71-6.47,32.46.65,11.95,4.13,21.94,10.43,29.99,7.39,9.47,17.41,14.24,30.06,14.29,6.01.07,10.83-1.07,14.45-3.44,3.62-2.36,7.05-6.12,10.27-11.29l-3.56-2.33c-3.64,6.47-9.79,9.75-18.47,9.85h-.01Z"/>
  <path class="st0" d="M184.4,62.27c.35.65.92,1.13,1.78.68.81-.42.85-1.08.62-1.84-.21-.69-.41-1.38-.63-2.06-1.67-5.36-1.21-10.53,1.79-15.28,1.28-2.03,3.02-3.79,4.67-5.56,2.08-2.23,4.43-4.23,6.42-6.54,7.41-8.64,5.72-20.32-3.84-28.62-.78-.68-1.61-.79-2.31.62.31.41.56.78.84,1.12,5.64,6.94,5.64,13.6-.09,20.47-1.61,1.93-3.56,3.57-5.15,5.52-2.09,2.57-4.24,5.15-5.89,8-2.94,5.09-4.11,10.59-1.86,16.3.98,2.49,2.39,4.81,3.66,7.18h0Z"/>
  <path class="st0" d="M61.89,89.7c.75,0,1.2.05,1.34.15.24.14.36.93.36,2.36v51.14c0,.9,0,1.52-.04,1.87-.02.35-.09.78-.18,1.27-.1.5-.26.83-.49,1s-.56.25-1,.25v3.56h19.3v-3.56c-.65,0-1.13-.17-1.42-.51-.41-.44-.62-1.98-.62-4.62v-50.42c0-1.28.07-2.02.2-2.22.13-.19.74-.29,1.84-.29v-3.67h-19.3v3.69Z"/>
  <path class="st0" d="M187.93,151.71v-71.1c6.06.99,10.84,1.49,14.36,1.49,7.2,0,12.94-1.91,17.23-5.73s6.48-8.18,6.58-13.1c.05-4.12-1.46-7.69-4.53-10.72-3.07-3.03-7.46-4.54-13.18-4.54-3.88,0-7.29,1.25-10.23,3.74-2.94,2.5-4.37,5.61-4.27,9.34.05,1.84.5,3.26,1.36,4.25s1.85,1.5,2.96,1.53c1.11.02,2.24-.33,3.36-1.05,1.13-.73,1.93-1.76,2.42-3.09-1.04-.53-1.61-1.65-1.71-3.34-.05-1.65.44-2.96,1.45-3.94,1.02-.98,2.24-1.47,3.67-1.47,1.7.05,3.17.79,4.43,2.22s1.89,3.49,1.89,6.18c0,2.28-.42,4.42-1.25,6.43-.84,2.01-2.25,3.77-4.24,5.29-1.99,1.51-4.42,2.32-7.31,2.42-1.89.05-7.49-.61-16.79-1.98-9.31-1.37-17.11-2.05-23.41-2.05-5.21.02-9.71,1.1-13.49,3.24-5.06,2.84-8.24,6.98-9.52,12.43-1.21,5.04-.53,9.57,2.04,13.6,2.86,4.48,7.17,6.72,12.94,6.72,4.17,0,7.73-1.16,10.69-3.47s4.39-5.48,4.29-9.5c-.05-1.82-.51-3.22-1.38-4.22-.87-.99-1.87-1.5-2.98-1.53-1.12-.02-2.24.32-3.36,1.04-1.13.72-1.93,1.74-2.42,3.07.95.51,1.47,1.45,1.56,2.84.05,1.19-.34,2.14-1.16,2.87s-1.85,1.09-3.09,1.09c-.39,0-.78-.05-1.16-.14-2.28-.51-3.84-2.18-4.69-5.02-1.04-3.47-.55-6.83,1.49-10.11,2.91-4.77,7.98-7.28,15.23-7.52,1.91-.05,4.13.07,6.65.36v73.94c0,.9,0,1.54-.04,1.93-.02.39-.09.84-.2,1.36s-.29.87-.53,1.05c-.24.18-.56.27-.95.27v3.64h19.27v-3.64c-.65-.02-1.13-.21-1.42-.55-.39-.44-.58-1.94-.58-4.51l.02-.02Z"/>
  <path class="st0" d="M455.45,91.41l3.71,8.18h1.27v-13.41h-38.63v-3.64h-38.71v5.13c.8,0,1.3.13,1.49.38s.29.98.29,2.16v53.51c0,1.65-.1,2.72-.29,3.22-.16.4-.54.63-1.12.71v-3.45c-.29,0-.55-.02-.76-.07-.22-.05-.42-.14-.6-.27s-.35-.26-.49-.38c-.15-.12-.28-.3-.4-.55-.12-.24-.23-.47-.33-.67-.1-.21-.2-.49-.31-.85s-.2-.66-.27-.89c-.07-.23-.17-.59-.29-1.09s-.21-.89-.25-1.18l-11.3-45.95c-.27-.58-.38-1.14-.33-1.69.05-.55.35-.82.91-.82v-3.67h-21.16v3.67c.99,0,1.65.15,1.98.44s.35.93.05,1.93l-7.09,28.75c-4.12,1.09-7.45,2.8-9.98,5.14s-3.75,5.27-3.65,8.78c.05,1.82.47,3.24,1.27,4.25.8,1.02,1.71,1.54,2.73,1.56,1.02.02,2.04-.33,3.05-1.07,1.02-.74,1.77-1.77,2.25-3.11-.95-.46-1.47-1.41-1.56-2.84-.14-2.93,1.35-5.14,4.47-6.62l-3.2,12.87c-.49,1.94-.91,3.14-1.29,3.62-.38.47-1.16.71-2.34.71v3.56h11.38v-3.56c-1.19,0-1.84-.22-1.96-.67s.06-1.64.55-3.58l3.6-14.58c6.11-.22,10.92,1.76,14.43,5.93.8,3.37,1.42,5.9,1.85,7.6.46,1.41.64,2.64.53,3.71-.11,1.07-.66,1.6-1.65,1.6v3.56h19.73v3.56h19.3v-3.64c-.9,0-1.44-.22-1.62-.67s-.27-1.41-.27-2.89v-23.45h8.8l2.84,10.11h1.93c0-2.18-.01-6.48-.04-12.89-.02-6.41-.04-10.71-.04-12.89h-1.85l-2.84,10.43h-8.8v-27.77h14.76l4.91,10.94h1.71v-7.96c.75.01,1.21.16,1.38.45.17.3.25,1.14.25,2.53v46.56c0,.36-.01.65-.04.85-.02.21-.06.44-.11.71s-.12.48-.22.64-.21.31-.35.45c-.13.14-.29.24-.45.29s-.35.07-.55.07v4.54h38.71v-13.41h-1.27l-3.71,8.22h-16.47v-21.88h8.87l2.8,8.03h1.89v-21.37h-1.89l-2.8,8.11h-8.87v-24.03h16.47-.01ZM352.74,119.69c-1.43,0-2.53.02-3.31.07,3.39-13.64,5.11-20.56,5.16-20.76l5.2,21.34c-2.13-.44-4.48-.65-7.05-.65h0Z"/>
  <path class="st0" d="M119.64,91.81c-1.84-2.76-4.56-5-8.16-6.71-3.6-1.71-7.68-2.56-12.23-2.56h-17.88v3.56c.9,0,1.42.12,1.56.35.15.23.22.96.22,2.2v50.85c0,.95-.01,1.61-.04,2s-.09.83-.18,1.33c-.1.5-.27.85-.53,1.05-.25.21-.6.31-1.04.31v3.56h19.3v-3.56c-.65-.02-1.13-.21-1.42-.55-.41-.44-.62-1.97-.62-4.62v-10.11c4.6.1,8.74-.68,12.4-2.34s6.43-3.86,8.32-6.6,3.29-5.77,4.2-9.09c.91-3.32.95-6.64.11-9.96s-2.17-6.36-4.02-9.12h0ZM108.16,115.54c-1.79,6.52-4.97,9.58-9.52,9.2v-36.02c0-1.09.02-1.76.07-2,4.31-.39,7.42,2.69,9.31,9.23s1.94,13.07.15,19.59h0Z"/>
</svg>